<svg xmlns="http://www.w3.org/2000/svg" width="119.862" height="109.874" viewBox="0 0 119.862 109.874">
  <g id="bank-add" transform="translate(0 -21.333)">
    <path id="Path_11121" data-name="Path 11121" d="M173.428,152.422c-2.167,1.965-2.217,3.779-2.217,7.054,0,.806-.5,1.562-2.116,1.562-1.36,0-1.965-.554-1.965-2.318,0-5.038,1.361-7,2.721-8.263,1.965-1.814,5.391-3.829,5.391-7.961,0-3.225-2.217-5.089-5.794-5.089-4.787,0-4.585,3.124-6.5,3.124a2.067,2.067,0,0,1-2.066-2.066c0-2.116,3.275-5.139,8.716-5.139,6.4,0,10.077,3.779,10.077,8.666C179.676,147.585,175.091,150.709,173.428,152.422Zm-1.31,15.368a3.022,3.022,0,0,1-2.973,3.023,3.024,3.024,0,0,1,0-6.046A3.022,3.022,0,0,1,172.118,167.79Z" transform="translate(-120.218 -85.775)" fill="#358fcf"/>
    <path id="Path_11122" data-name="Path 11122" d="M115.766,21.759H109.96a1.824,1.824,0,0,0-.769.177l-12.4,6.045A7.9,7.9,0,0,0,89,21.333H7.887A7.9,7.9,0,0,0,0,29.22v85.717a7.9,7.9,0,0,0,7.887,7.887h.828v3.817a4.571,4.571,0,0,0,4.566,4.566h7.474a4.571,4.571,0,0,0,4.566-4.566v-3.817H71.564v3.817a4.571,4.571,0,0,0,4.566,4.566H83.6a4.571,4.571,0,0,0,4.566-4.566v-3.817H89a7.9,7.9,0,0,0,7.789-6.648l12.4,6.045a1.81,1.81,0,0,0,.769.177h5.806a4.1,4.1,0,0,0,4.1-4.1V25.855a4.1,4.1,0,0,0-4.1-4.1ZM21.809,126.641a1.056,1.056,0,0,1-1.055,1.055H13.281a1.056,1.056,0,0,1-1.055-1.055v-3.817h9.583Zm62.85,0A1.056,1.056,0,0,1,83.6,127.7H76.13a1.056,1.056,0,0,1-1.055-1.055v-3.817h9.583Zm8.715-11.7A4.38,4.38,0,0,1,89,119.312H7.887a4.38,4.38,0,0,1-4.375-4.375V29.22a4.38,4.38,0,0,1,4.375-4.375H89a4.38,4.38,0,0,1,4.375,4.375v.425l-5.752,2.8a5,5,0,0,0-4.335-2.518H13.6a5.007,5.007,0,0,0-5,5v7.459a1.756,1.756,0,1,0,3.512,0V34.932a1.492,1.492,0,0,1,1.49-1.49H83.286a1.492,1.492,0,0,1,1.49,1.49V98.315a10.1,10.1,0,0,0-6.637-2.481H18.745a10.1,10.1,0,0,0-6.637,2.481V50.6a1.756,1.756,0,1,0-3.512,0v58.626a5.007,5.007,0,0,0,5,5H83.286a5,5,0,0,0,4.335-2.518l5.752,2.8v.425Zm-81.265-8.954a6.644,6.644,0,0,1,6.637-6.637H78.14a6.644,6.644,0,0,1,6.637,6.637v3.242a1.492,1.492,0,0,1-1.49,1.49H13.6a1.492,1.492,0,0,1-1.49-1.49ZM116.351,118.3a.586.586,0,0,1-.585.585h-4.05V104.567a1.756,1.756,0,0,0-3.512,0v13.266l-19.917-9.706v-72.1L108.2,26.324V96.359a1.756,1.756,0,1,0,3.512,0V25.27h4.05a.586.586,0,0,1,.585.585Z" fill="#a7b3c4"/>
  </g>
</svg>
