<svg xmlns="http://www.w3.org/2000/svg" width="18.742" height="23.078" viewBox="0 0 18.742 23.078"><defs><style>.a{fill:#ff5b5b;}</style></defs><path class="a" d="M222.938,154.7a.54.54,0,0,0-.54.54v10.214a.54.54,0,1,0,1.081,0V155.243A.54.54,0,0,0,222.938,154.7Zm0,0" transform="translate(-210.379 -146.342)"/><path class="a" d="M104.938,154.7a.54.54,0,0,0-.54.54v10.214a.54.54,0,0,0,1.081,0V155.243A.54.54,0,0,0,104.938,154.7Zm0,0" transform="translate(-98.756 -146.342)"/><path class="a" d="M1.532,6.869V20.184a2.982,2.982,0,0,0,.793,2.056,2.661,2.661,0,0,0,1.931.835H14.48a2.661,2.661,0,0,0,1.931-.835,2.982,2.982,0,0,0,.793-2.056V6.869a2.065,2.065,0,0,0-.53-4.06H13.907V2.133A2.123,2.123,0,0,0,11.767,0h-4.8a2.123,2.123,0,0,0-2.14,2.135v.676H2.061a2.065,2.065,0,0,0-.53,4.06ZM14.48,21.995H4.255a1.712,1.712,0,0,1-1.643-1.811V6.916H16.123V20.184a1.712,1.712,0,0,1-1.643,1.811ZM5.909,2.133A1.041,1.041,0,0,1,6.968,1.079h4.8a1.041,1.041,0,0,1,1.059,1.054v.676H5.909ZM2.061,3.89H16.674a.973.973,0,0,1,0,1.946H2.061a.973.973,0,0,1,0-1.946Zm0,0" transform="translate(0.003 0.002)"/><path class="a" d="M163.938,154.7a.54.54,0,0,0-.54.54v10.214a.54.54,0,0,0,1.081,0V155.243A.54.54,0,0,0,163.938,154.7Zm0,0" transform="translate(-154.567 -146.342)"/></svg>