<svg xmlns="http://www.w3.org/2000/svg" width="10.093" height="19" viewBox="0 0 10.093 19">
  <path id="fb" d="M76.993,9.587h1.973V17.71a.29.29,0,0,0,.29.29H82.6a.29.29,0,0,0,.29-.29V9.625h2.268a.29.29,0,0,0,.288-.257l.344-2.99a.29.29,0,0,0-.288-.324H82.893V4.179c0-.565.3-.852.9-.852h1.708a.29.29,0,0,0,.29-.29V.292a.29.29,0,0,0-.29-.29H83.151c-.017,0-.053,0-.108,0a4.511,4.511,0,0,0-2.95,1.112,3.093,3.093,0,0,0-1.029,2.75V6.054H76.993a.29.29,0,0,0-.29.29V9.3A.29.29,0,0,0,76.993,9.587Z" transform="translate(-76.203 0.5)" fill="rgba(167,179,196,0)" stroke="#a7b3c4" stroke-width="1"/>
</svg>
