<svg xmlns="http://www.w3.org/2000/svg" width="18" height="18" viewBox="0 0 18 18">
  <g id="insta" transform="translate(-1195.088 -856)">
    <path id="Path_11299" data-name="Path 11299" d="M2.637,18H15.363A2.64,2.64,0,0,0,18,15.363V2.637A2.64,2.64,0,0,0,15.363,0H2.637A2.64,2.64,0,0,0,0,2.637V15.363A2.64,2.64,0,0,0,2.637,18ZM1.055,2.637A1.584,1.584,0,0,1,2.637,1.055H15.363a1.584,1.584,0,0,1,1.582,1.582V15.363a1.584,1.584,0,0,1-1.582,1.582H2.637a1.584,1.584,0,0,1-1.582-1.582Zm0,0" transform="translate(1195.088 856)" fill="#a7b3c4"/>
    <path id="Path_11300" data-name="Path 11300" d="M125.746,130.492A4.746,4.746,0,1,0,121,125.746,4.752,4.752,0,0,0,125.746,130.492Zm0-8.437a3.691,3.691,0,1,1-3.691,3.691A3.7,3.7,0,0,1,125.746,122.055Zm0,0" transform="translate(1078.342 739.254)" fill="#a7b3c4"/>
    <path id="Path_11301" data-name="Path 11301" d="M362.582,64.164A1.582,1.582,0,1,0,361,62.582,1.584,1.584,0,0,0,362.582,64.164Zm0-2.109a.527.527,0,1,1-.527.527A.528.528,0,0,1,362.582,62.055Zm0,0" transform="translate(846.78 797.145)" fill="#a7b3c4"/>
  </g>
</svg>
