<svg xmlns="http://www.w3.org/2000/svg" width="54.5" height="42.929" viewBox="0 0 54.5 42.929">
  <g id="mail3" transform="translate(0.25 -54.567)">
    <path id="Path_7262" data-name="Path 7262" d="M52.584,56.233a4.642,4.642,0,0,0-3.405-1.416H4.822a4.643,4.643,0,0,0-3.405,1.416A4.642,4.642,0,0,0,0,59.639V92.425a4.64,4.64,0,0,0,1.416,3.4,4.64,4.64,0,0,0,3.405,1.417H49.179A4.836,4.836,0,0,0,54,92.425V59.639A4.641,4.641,0,0,0,52.584,56.233ZM50.143,92.424a.977.977,0,0,1-.964.964H4.821a.976.976,0,0,1-.964-.964V69.281A17.638,17.638,0,0,0,5.936,71.27q8.076,6.208,12.837,10.185,1.537,1.3,2.5,2.019a13.889,13.889,0,0,0,2.606,1.461,7.55,7.55,0,0,0,3.089.738h.06a7.548,7.548,0,0,0,3.089-.738,13.871,13.871,0,0,0,2.607-1.461q.964-.723,2.5-2.019,4.761-3.978,12.837-10.185a17.552,17.552,0,0,0,2.079-1.989V92.424Zm0-32v.331a7.525,7.525,0,0,1-1.4,3.963,14.174,14.174,0,0,1-3.028,3.48Q39.9,72.777,33.629,77.749q-.18.151-1.055.888t-1.386,1.131q-.513.392-1.341.949a8.043,8.043,0,0,1-1.522.829,3.58,3.58,0,0,1-1.3.27h-.06a3.581,3.581,0,0,1-1.3-.27,8.03,8.03,0,0,1-1.522-.829q-.828-.557-1.341-.949t-1.386-1.131q-.874-.738-1.055-.888Q14.1,72.777,8.287,68.2a10.547,10.547,0,0,1-4.43-8.558.978.978,0,0,1,.964-.964H49.179a.523.523,0,0,0,.422.075c.121-.041.211.035.271.226s.116.281.166.271.081.115.091.377.014.392.014.392v.406Z" fill="#a7b3c4" stroke="#a7b3c4" stroke-width="0.5"/>
  </g>
</svg>
