<svg xmlns="http://www.w3.org/2000/svg" width="57.035" height="43.449" viewBox="0 0 57.035 43.449">
  <g id="mail1" transform="translate(0 -60.983)">
    <g id="Group_8163" data-name="Group 8163" transform="translate(3.718 60.983)">
      <path id="Path_11074" data-name="Path 11074" d="M83.685,122.808l-3.641,36.561H36.312l-2.933-35.854,24.8,13.885Z" transform="translate(-33.379 -115.921)" fill="#f2f2f2"/>
      <path id="Path_11075" data-name="Path 11075" d="M86.658,60.983l-24.272,22.8-24.272-22.8H86.658Z" transform="translate(-37.587 -60.983)" fill="#f2f2f2"/>
    </g>
    <path id="Path_11076" data-name="Path 11076" d="M6.652,116.816v32.92H2.689A2.69,2.69,0,0,1,0,147.047v-35.08l4.344.118Z" transform="translate(0 -45.305)" fill="#f14336"/>
    <path id="Path_11077" data-name="Path 11077" d="M458.94,109.3v35.08a2.69,2.69,0,0,1-2.69,2.689h-3.961V114.151l2.194-5.183Z" transform="translate(-401.905 -42.64)" fill="#d32e2a"/>
    <path id="Path_11078" data-name="Path 11078" d="M57.035,63.672v2.99l-6.652,4.849L28.518,87.448,6.652,71.511,0,66.662v-2.99a2.69,2.69,0,0,1,2.689-2.689H4.246L28.518,78.674,52.789,60.983h1.555A2.69,2.69,0,0,1,57.035,63.672Z" fill="#f14336"/>
    <path id="Path_11079" data-name="Path 11079" d="M6.652,116.816,0,115.784v-3.817Z" transform="translate(0 -45.305)" fill="#d32e2a"/>
  </g>
</svg>
