<svg xmlns="http://www.w3.org/2000/svg" width="15" height="15" viewBox="0 0 15 15">
  <g id="usa" transform="translate(0 0.021)">
    <circle id="Ellipse_150" data-name="Ellipse 150" cx="7.5" cy="7.5" r="7.5" transform="translate(0 -0.021)" fill="#f0f0f0"/>
    <g id="Group_8205" data-name="Group 8205" transform="translate(0.258 1.628)">
      <path id="Path_11098" data-name="Path 11098" d="M244.87,191.171h7.815a7.5,7.5,0,0,0-.258-1.954H244.87Z" transform="translate(-237.964 -185.31)" fill="#d80027"/>
      <path id="Path_11099" data-name="Path 11099" d="M244.87,57.606h6.716a7.529,7.529,0,0,0-1.728-1.954H244.87Z" transform="translate(-237.964 -55.652)" fill="#d80027"/>
      <path id="Path_11100" data-name="Path 11100" d="M101.306,457.976a7.457,7.457,0,0,0,4.662-1.628H96.644A7.457,7.457,0,0,0,101.306,457.976Z" transform="translate(-94.075 -444.626)" fill="#d80027"/>
      <path id="Path_11101" data-name="Path 11101" d="M9.66,324.736H22.44a7.445,7.445,0,0,0,.841-1.954H8.819A7.445,7.445,0,0,0,9.66,324.736Z" transform="translate(-8.819 -314.967)" fill="#d80027"/>
    </g>
    <path id="Path_11102" data-name="Path 11102" d="M3.469,1.17h.682l-.635.461.242.746-.635-.461-.635.461L2.7,1.732A7.53,7.53,0,0,0,1.247,3.351h.219l-.4.294Q.967,3.8.88,3.965l.193.594L.713,4.3q-.134.284-.245.581l.213.654h.785L.83,5.994l.242.746L.438,6.279l-.38.276A7.561,7.561,0,0,0,0,7.489H7.489V0A7.454,7.454,0,0,0,3.469,1.17Zm.29,5.571-.635-.461L2.49,6.74l.242-.746L2.1,5.533h.785l.242-.746.242.746h.785l-.635.461ZM3.517,3.812l.242.746L3.125,4.1l-.635.461.242-.746L2.1,3.351h.785L3.125,2.6l.242.746h.785ZM6.446,6.74l-.635-.461-.635.461.242-.746-.635-.461h.785l.242-.746.242.746h.785L6.2,5.994ZM6.2,3.812l.242.746L5.811,4.1l-.635.461.242-.746-.635-.461h.785L5.811,2.6l.242.746h.785Zm0-2.182.242.746-.635-.461-.635.461.242-.746L4.784,1.17h.785L5.811.423l.242.746h.785Z" transform="translate(0)" fill="#0052b4"/>
  </g>
</svg>
