<?xml version="1.0" standalone="no"?>
<!DOCTYPE svg PUBLIC "-//W3C//DTD SVG 1.1//EN" "http://www.w3.org/Graphics/SVG/1.1/DTD/svg11.dtd" >
<svg xmlns="http://www.w3.org/2000/svg">
<metadata>Generated by IcoMoon</metadata>
<defs>
<font id="icomoon" horiz-adv-x="1024">
<font-face units-per-em="1024" ascent="960" descent="-64" />
<missing-glyph horiz-adv-x="1024" />
<glyph unicode="&#x20;" horiz-adv-x="512" d="" />
<glyph unicode="&#xe900;" glyph-name="printer" d="M864.802 727.108h-27.682v55.398c-4.661 80.237-70.867 143.539-151.857 143.539-2.594 0-5.173-0.065-7.735-0.193l0.36 0.014h-334.234c-2.192 0.113-4.759 0.177-7.341 0.177-80.99 0-147.195-63.301-151.838-143.127l-0.019-0.41v-55.398h-25.225c-2.192 0.113-4.759 0.177-7.341 0.177-80.99 0-147.195-63.301-151.838-143.127l-0.019-0.41v-231.117c4.662-80.236 70.867-143.537 151.857-143.537 2.582 0 5.149 0.064 7.699 0.191l-0.359-0.014h25.020v-181.658c2.315-40.113 35.409-71.765 75.896-71.765 1.266 0 2.526 0.031 3.777 0.092l-0.176-0.007h493.636c1.075-0.054 2.334-0.085 3.6-0.085 40.487 0 73.581 31.652 75.887 71.562l0.009 0.204v181.828h27.921c2.192-0.113 4.759-0.177 7.341-0.177 80.99 0 147.195 63.301 151.838 143.127l0.019 0.41v231.014c-4.697 80.205-70.887 143.469-151.853 143.469-2.583 0-5.152-0.064-7.703-0.192l0.359 0.014zM244.497 782.507c2.948 49.834 44.082 89.131 94.394 89.131 1.615 0 3.221-0.041 4.817-0.121l-0.224 0.009h334.063c1.371 0.071 2.977 0.112 4.593 0.112 50.312 0 91.446-39.297 94.382-88.873l0.012-0.259v-55.398h-532.036zM776.533 27.375c-0.637-9.679-8.644-17.288-18.429-17.288-0.277 0-0.553 0.006-0.828 0.018l0.039-0.001h-493.602c-0.235-0.011-0.511-0.017-0.789-0.017-9.784 0-17.791 7.609-18.426 17.233l-0.003 0.055v299.622h532.036zM963.721 352.427c-2.948-49.834-44.082-89.131-94.394-89.131-1.615 0-3.221 0.041-4.817 0.121l0.224-0.009h-27.682v63.488h39.731c0.915-0.109 1.974-0.171 3.048-0.171 15.081 0 27.307 12.226 27.307 27.307s-12.226 27.307-27.307 27.307c-1.074 0-2.133-0.062-3.175-0.183l0.127 0.012h-736.768c-0.915 0.109-1.974 0.171-3.048 0.171-15.081 0-27.307-12.226-27.307-27.307s12.226-27.307 27.307-27.307c1.074 0 2.133 0.062 3.175 0.183l-0.127-0.012h44.373v-63.488h-25.225c-1.371-0.071-2.977-0.112-4.593-0.112-50.312 0-91.446 39.297-94.382 88.873l-0.012 0.259v231.219c2.948 49.834 44.082 89.131 94.394 89.131 1.615 0 3.221-0.041 4.817-0.121l-0.224 0.009h705.638c1.371 0.071 2.977 0.112 4.593 0.112 50.312 0 91.446-39.297 94.382-88.873l0.012-0.259zM317.508 193.57h383.829c0.915-0.109 1.974-0.171 3.048-0.171 15.081 0 27.307 12.226 27.307 27.307s-12.226 27.307-27.307 27.307c-1.074 0-2.133-0.062-3.175-0.183l0.127 0.012h-383.829c-0.915 0.109-1.974 0.171-3.048 0.171-15.081 0-27.307-12.226-27.307-27.307s12.226-27.307 27.307-27.307c1.074 0 2.133 0.062 3.175 0.183l-0.127-0.012zM703.829 136.909h-384.068c-0.915 0.109-1.974 0.171-3.048 0.171-15.081 0-27.307-12.226-27.307-27.307s12.226-27.307 27.307-27.307c1.074 0 2.133 0.062 3.175 0.183l-0.127-0.012h383.829c0.95-0.117 2.050-0.184 3.165-0.184 15.081 0 27.307 12.226 27.307 27.307s-12.226 27.307-27.307 27.307c-1.031 0-2.048-0.057-3.050-0.168l0.123 0.011zM864.154 620.612h-61.167c-0.915 0.109-1.974 0.171-3.048 0.171-15.081 0-27.307-12.226-27.307-27.307s12.226-27.307 27.307-27.307c1.074 0 2.133 0.062 3.175 0.183l-0.127-0.012h61.167c0.915-0.109 1.974-0.171 3.048-0.171 15.081 0 27.307 12.226 27.307 27.307s-12.226 27.307-27.307 27.307c-1.074 0-2.133-0.062-3.175-0.183l0.127 0.012z" />
<glyph unicode="&#xe901;" glyph-name="question" d="M512 960c-0.008 0-0.018 0-0.027 0-282.77 0-512-229.23-512-512 0-141.409 57.327-269.428 150.008-362.086l0.001-0.001c92.672-92.681 220.702-150.005 362.121-150.005 282.82 0 512.092 229.271 512.092 512.092 0 141.402-57.311 269.418-149.971 362.087v0c-92.13 92.606-219.661 149.916-360.577 149.916-0.579 0-1.157-0.001-1.735-0.003h0.089zM512 873.028v0c234.737 0 425.028-190.292 425.028-425.028s-190.292-425.028-425.028-425.028v0c-234.696 0.054-424.933 190.325-424.933 425.028 0 117.404 47.602 223.69 124.558 300.611l0.002 0.002c76.529 76.857 182.428 124.417 299.436 124.417 0.33 0 0.659 0 0.988-0.001h-0.051zM514.048 690.927c-1.226 0.030-2.669 0.047-4.117 0.047-30.801 0-59.805-7.698-85.191-21.274l0.971 0.474c-23.69-12.466-43.108-30.178-57.227-51.681l-0.356-0.577c-11.893-17.517-19.206-38.995-19.794-62.144l-0.003-0.149c0.25-10.926 4.957-20.705 12.368-27.627l0.022-0.021c7.48-7.877 18.030-12.778 29.724-12.778 0.35 0 0.7 0.004 1.048 0.013l-0.052-0.001q30.72 0 41.779 36.557c5.985 20.426 15.756 38.115 28.594 53.099l-0.161-0.192c12.213 11.28 28.602 18.198 46.606 18.198 2.038 0 4.055-0.089 6.047-0.262l-0.259 0.018c0.848 0.037 1.842 0.057 2.842 0.057 18.023 0 34.466-6.768 46.925-17.901l-0.068 0.060c11.838-10.535 19.258-25.813 19.258-42.823 0-0.305-0.002-0.609-0.007-0.913l0.001 0.046c0.001-0.13 0.002-0.284 0.002-0.437 0-8.873-2.356-17.196-6.477-24.378l0.126 0.239c-4.365-7.838-9.525-14.575-15.518-20.468l-0.012-0.012q-9.182-9.182-29.901-27.307c-13.454-11.602-25.698-23.273-37.342-35.52l-0.205-0.217c-19.072-20.401-30.783-47.893-30.783-78.12 0-1.336 0.023-2.667 0.068-3.992l-0.005 0.192c-0.077-0.968-0.121-2.097-0.121-3.236 0-11.397 4.409-21.764 11.614-29.49l-0.024 0.026c7.060-6.81 16.682-11.006 27.284-11.006 0.38 0 0.759 0.005 1.137 0.016l-0.056-0.001c0.767-0.058 1.661-0.091 2.563-0.091 19.092 0 34.713 14.857 35.934 33.64l0.006 0.107q3.584 15.838 5.359 22.187c1.399 4.871 3.095 9.072 5.166 13.048l-0.182-0.384c2.901 5.29 6.173 9.857 9.918 13.987l-0.054-0.060c5.618 6.268 11.379 12.028 17.438 17.462l0.209 0.185q39.799 35.601 55.228 50.654c10.313 10.272 19.129 22.037 26.097 34.946l0.391 0.792c7.030 13.295 11.157 29.059 11.157 45.788 0 0.859-0.011 1.715-0.032 2.568l0.003-0.126c0.001 0.203 0.002 0.444 0.002 0.685 0 23.929-7.296 46.154-19.785 64.572l0.258-0.404c-13.86 20.403-32.655 36.493-54.709 46.759l-0.826 0.345c-23.17 10.951-50.335 17.344-78.992 17.344-1.341 0-2.68-0.014-4.015-0.042l0.199 0.003zM506.402 297.813c-0.349 0.009-0.761 0.014-1.174 0.014-13.204 0-25.164-5.325-33.85-13.944l0.003 0.003c-8.804-8.397-14.278-20.218-14.278-33.318 0-0.347 0.004-0.693 0.011-1.038l-0.001 0.051c-0.044-0.745-0.070-1.616-0.070-2.493 0-13.197 5.717-25.058 14.809-33.243l0.040-0.036c8.932-7.929 20.759-12.772 33.717-12.772 0.266 0 0.532 0.002 0.798 0.006h-0.040c0.092-0.001 0.202-0.001 0.311-0.001 12.862 0 24.572 4.93 33.345 13.003l-0.035-0.032c8.971 8.273 14.57 20.086 14.57 33.206 0 0.842-0.023 1.679-0.069 2.511l0.005-0.116c0.005 0.256 0.008 0.557 0.008 0.859 0 26.166-21.211 47.377-47.377 47.377-0.267 0-0.533-0.002-0.799-0.007l0.040 0.001z" />
<glyph unicode="&#xe902;" glyph-name="reset" d="M562.62-61.133c224.314 26.581 396.625 215.629 396.625 444.923 0 245.558-197.624 444.959-442.502 447.832l-0.271 0.003v120.491c-0.348 4.482-4.070 7.986-8.611 7.986-2.059 0-3.95-0.721-5.434-1.923l0.016 0.013-248.081-182.204c-1.913-1.407-3.141-3.649-3.141-6.178s1.228-4.771 3.12-6.163l0.021-0.015 248.081-182.204c1.462-1.151 3.33-1.846 5.36-1.846 4.532 0 8.255 3.463 8.666 7.887l0.003 0.034v120.286c176.746-3.042 318.859-147.036 318.859-324.222 0-179.088-145.179-324.267-324.267-324.267-160.763 0-294.202 116.989-319.826 270.478l-0.261 1.895c-4.677 29.832-30.195 52.383-60.979 52.383-34.067 0-61.685-27.617-61.685-61.685 0-3.283 0.256-6.506 0.75-9.65l-0.045 0.348c35.65-215.092 220.301-377.091 442.789-377.091 17.904 0 35.563 1.049 52.919 3.089l-2.106-0.201z" />
<glyph unicode="&#xe903;" glyph-name="facebook" horiz-adv-x="517" d="M16.711 414.63h112.248v-462.13c0-9.113 7.388-16.501 16.501-16.501h190.338c9.113 0 16.501 7.388 16.501 16.501v0 459.922h129.064c0.001 0 0.002 0 0.004 0 8.447 0 15.411 6.346 16.384 14.531l0.008 0.078 19.601 170.106c0.069 0.568 0.109 1.225 0.109 1.892 0 9.113-7.388 16.501-16.501 16.501-0.001 0-0.003 0-0.004 0h-148.613v106.73c0 32.161 17.289 48.452 51.447 48.452h97.166c9.113 0 16.501 7.388 16.501 16.501v0 156.128c0 0.047 0.001 0.103 0.001 0.159 0 9.113-7.388 16.501-16.501 16.501-0.074 0-0.148 0-0.222-0.001h-133.94c-0.946 0-3.048 0-6.148 0-64.396-0.17-123.186-24.029-168.148-63.318l0.301 0.258c-36.966-32.428-60.176-79.76-60.176-132.513 0-8.44 0.594-16.741 1.743-24.863l-0.108 0.933v-124.913h-117.556c-9.113 0-16.501-7.388-16.501-16.501v0-168.162c0.119-9.022 7.46-16.291 16.5-16.291 0 0 0.001 0 0.001 0v0z" />
<glyph unicode="&#xe904;" glyph-name="right-arrow1" horiz-adv-x="1456" d="M980.704 944.578c-9.363 9.45-22.344 15.3-36.691 15.3-28.522 0-51.644-23.122-51.644-51.644 0-14.175 5.711-27.015 14.957-36.347l372.153-372.153h-1228.092c-0.075 0-0.164 0.001-0.253 0.001-28.24 0-51.134-22.893-51.134-51.134 0-0.089 0-0.178 0.001-0.267v0.014c-0.001-0.132-0.002-0.287-0.002-0.443 0-28.444 22.969-51.523 51.371-51.701h1228.109l-372.157-371.462c-9.196-9.478-14.865-22.422-14.865-36.691s5.669-27.213 14.878-36.704l-0.013 0.013c9.34-9.497 22.328-15.383 36.691-15.383s27.351 5.885 36.684 15.376l460.399 460.273c9.507 9.205 15.409 22.085 15.409 36.343s-5.901 27.138-15.395 36.33l-0.014 0.013z" />
<glyph unicode="&#xe905;" glyph-name="filter" d="M983.791 960h-943.788c-22.093 0-40.003-17.91-40.003-40.003v0c0.060-115.842 50.516-219.887 130.63-291.408l0.382-0.335 175.163-155.693c29.366-26.214 47.77-64.174 47.784-106.432v-389.92c0.004-22.090 17.913-39.995 40.003-39.995 8.265 0 15.945 2.507 22.321 6.801l-0.143-0.091 235.973 157.304c10.807 7.274 17.822 19.46 17.825 33.284v0 232.614c0.014 42.261 18.418 80.22 47.645 106.312l0.14 0.122 175.163 155.693c80.497 71.857 130.953 175.902 131.012 291.733v0.011c0 0 0 0 0 0 0 22.093-17.91 40.003-40.003 40.003-0.036 0-0.072 0-0.108 0h0.006zM839.822 688.069l-175.163-155.693c-45.871-40.935-74.625-100.214-74.658-166.21v-211.367l-156.035-104.001v315.362c-0.034 66.002-28.787 125.282-74.44 166.024l-0.219 0.192-175.163 155.693c-54.25 48.424-91.285 115.128-101.392 190.364l-0.175 1.596h858.778c-10.267-76.829-47.29-143.535-101.229-191.693l-0.304-0.267z" />
<glyph unicode="&#xe906;" glyph-name="fliter-list" d="M537.632-28h-471.968c-35.654 0.812-64.246 29.907-64.246 65.68s28.592 64.868 64.171 65.679l0.075 0.001h471.968c35.654-0.812 64.246-29.907 64.246-65.68s-28.592-64.868-64.171-65.679l-0.075-0.001zM741.76 384.352h-676.096c-35.654 0.812-64.246 29.907-64.246 65.68s28.592 64.868 64.171 65.679l0.075 0.001h676.096c35.654-0.812 64.246-29.907 64.246-65.68s-28.592-64.868-64.171-65.679l-0.075-0.001zM945.856 796.64h-880.192c-35.654 0.812-64.246 29.907-64.246 65.68s28.592 64.868 64.171 65.679l0.075 0.001h880c35.654-0.812 64.246-29.907 64.246-65.68s-28.592-64.868-64.171-65.679l-0.075-0.001z" />
<glyph unicode="&#xe907;" glyph-name="seen" d="M884.064 587.936c-204.8 204.8-539.296 204.8-747.52 0l-136.544-136.544 139.936-139.936c102.4-102.4 238.944-153.6 372.064-153.6s273.056 47.776 375.456 150.176l136.544 136.544-139.936 143.36zM863.584 331.936c-191.136-191.136-505.184-191.136-696.32 0l-116.064 116.064 112.64 112.64c191.136 191.136 505.184 191.136 696.32 0l116.064-116.064-112.64-112.64zM494.944 587.936c-68.256 0-119.456-54.624-119.456-119.456 0-10.24 6.816-17.056 17.056-17.056s17.056 6.816 17.056 17.056c0 47.776 37.536 85.344 85.344 85.344 10.24 0 17.056 6.816 17.056 17.056s-6.816 17.056-17.056 17.056zM512 673.28c-122.88 0-225.28-102.4-225.28-225.28s102.4-225.28 225.28-225.28 225.28 102.4 225.28 225.28-102.4 225.28-225.28 225.28zM512 256.864c-105.824 0-191.136 85.344-191.136 191.136s85.344 191.136 191.136 191.136 191.136-85.344 191.136-191.136-85.344-191.136-191.136-191.136z" />
<glyph unicode="&#xe908;" glyph-name="shampoo" d="M731.102 700.177c-20.903 20.714-47.155 36.066-76.498 43.8l-1.189 0.266v116.053c-0.078 55.069-44.728 99.684-99.804 99.703h-69.088c-55.060-0.058-99.679-44.677-99.738-99.732v-116.059c-30.533-8-56.784-23.352-77.7-44.079l0.013 0.013c-31.49-31.195-51.037-74.397-51.2-122.166v-641.977h526.063v641.98c-0.066 47.754-19.494 90.958-50.853 122.192l-0.006 0.006zM451.686 860.262c0.019 18.184 14.755 32.919 32.937 32.939h68.985c18.184-0.019 32.919-14.755 32.939-32.937v-110.594h-134.997v110.592zM322.901 577.946c0 0.009 0 0.019 0 0.029 0 29.24 11.887 55.703 31.092 74.822l0.004 0.004c18.845 18.692 44.798 30.242 73.448 30.242 0.086 0 0.173 0 0.259 0h182.669c0.077 0 0.168 0 0.26 0 28.646 0 54.594-11.551 73.441-30.249l-0.007 0.007c19.226-19.072 31.153-45.477 31.232-74.669v-38.654h-392.533zM715.435 2.765h-392.533v143.565h392.533zM715.435 213.094h-392.533v259.413h392.533z" />
<glyph unicode="&#xe909;" glyph-name="share" horiz-adv-x="1025" d="M841.149 301.702c-57.986-0.43-109.496-27.785-142.702-70.168l-0.301-0.399-339.389 169.672c4.408 14.116 6.947 30.347 6.947 47.171s-2.539 33.054-7.255 48.33l0.308-1.159 339.389 169.672c33.561-41.495 84.472-67.807 141.528-67.807 100.297 0 181.604 81.307 181.604 181.604s-81.307 181.604-181.604 181.604c-100.297 0-181.604-81.307-181.604-181.604 0-0.532 0.002-1.064 0.007-1.595l-0.001 0.081c0.267-16.904 2.785-33.113 7.268-48.485l-0.323 1.292-339.167-169.628c-33.773 43.117-85.838 70.567-144.315 70.567-100.986 0-182.851-81.865-182.851-182.851s81.865-182.851 182.851-182.851c58.477 0 110.542 27.45 144.013 70.168l0.301 0.399 339.389-169.672c-3.926-14.142-6.183-30.381-6.183-47.147 0-100.986 81.865-182.851 182.851-182.851s182.851 81.865 182.851 182.851c0 100.986-81.865 182.851-182.851 182.851-0.268 0-0.536-0.001-0.804-0.002h0.041zM841.149 886.851c60.587 0 109.702-49.115 109.702-109.702s-49.115-109.702-109.702-109.702c-60.587 0-109.702 49.115-109.702 109.702v0c0 60.587 49.115 109.702 109.702 109.702v0zM182.851 338.298c-60.587 0-109.702 49.115-109.702 109.702s49.115 109.702 109.702 109.702c60.587 0 109.702-49.115 109.702-109.702v0c0-60.587-49.115-109.702-109.702-109.702v0zM841.149 9.149c-60.587 0-109.702 49.115-109.702 109.702s49.115 109.702 109.702 109.702c60.587 0 109.702-49.115 109.702-109.702v0c0-60.587-49.115-109.702-109.702-109.702v0z" />
<glyph unicode="&#xe90a;" glyph-name="sms" d="M581.984 589.64c0-29.229-23.695-52.923-52.923-52.923s-52.923 23.695-52.923 52.923c0 29.229 23.695 52.923 52.923 52.923s52.923-23.695 52.923-52.923zM370.36 589.64c0-29.229-23.695-52.923-52.923-52.923s-52.923 23.695-52.923 52.923c0 29.229 23.695 52.923 52.923 52.923s52.923-23.695 52.923-52.923zM793.643 589.64c0-29.229-23.695-52.923-52.923-52.923s-52.923 23.695-52.923 52.923c0 29.229 23.695 52.923 52.923 52.923s52.923-23.695 52.923-52.923zM802.207-64l-320.269 262.739h-376.126c-58.553 0.616-105.781 48.225-105.781 106.864 0 0.29 0.001 0.579 0.003 0.869v-0.044 545.951c-0.002 0.225-0.003 0.49-0.003 0.756 0 58.64 47.228 106.249 105.723 106.864h812.161c58.553-0.616 105.781-48.225 105.781-106.864 0-0.29-0.001-0.579-0.003-0.869v0.044-545.951c0.002-0.245 0.003-0.535 0.003-0.824 0-58.64-47.229-106.249-105.723-106.864h-115.766v-262.739zM105.812 896.021c-23.229-0.568-41.842-19.533-41.842-42.845 0-0.304 0.003-0.608 0.009-0.91l-0.001 0.045v-545.951c-0.006-0.257-0.009-0.561-0.009-0.865 0-23.312 18.614-42.278 41.79-42.844l0.053-0.001h398.988l233.428-191.492v191.595h179.618c23.229 0.568 41.842 19.533 41.842 42.845 0 0.304-0.003 0.608-0.009 0.91l0.001-0.045v545.951c0.006 0.257 0.009 0.561 0.009 0.865 0 23.312-18.614 42.278-41.79 42.844l-0.053 0.001z" />
<glyph unicode="&#xe90b;" glyph-name="history" d="M827.938 841.762c-87.065 73.489-200.538 118.155-324.444 118.155-150.601 0-285.79-65.986-378.233-170.622l-0.47-0.542-34.918 29.321c-25.19 21.265-43.076 17.545-51.507 13.449s-22.426-15.94-21.265-49.015l4.745-135.782c0-0.004 0-0.009 0-0.014 0-2.48 0.224-4.907 0.652-7.264l-0.037 0.247c3.55-20.788 21.433-36.413 42.965-36.413 2.486 0 4.924 0.208 7.297 0.609l134.776 18.908c32.734 4.574 41.916 20.48 44.373 29.355s3.106 27.307-22.118 48.435l-32.051 26.863c75.333 84.403 184.438 137.29 305.896 137.29 226.122 0 409.429-183.308 409.429-409.429s-183.308-409.429-409.429-409.429c-182.352 0-336.861 119.212-389.844 283.953l-0.805 2.898c-5.111 21.308-24 36.9-46.53 36.9-26.392 0-47.787-21.395-47.787-47.787 0-6.33 1.231-12.372 3.466-17.901l-0.115 0.321c66.3-206.544 256.68-353.415 481.364-353.415 278.641 0 504.525 225.883 504.525 504.525 0 154.746-69.668 293.22-179.349 385.769l-0.754 0.62zM501.282 286.891c0.022 0 0.047 0 0.073 0 8.357 0 15.928 3.363 21.434 8.809l232.104 232.104c5.454 5.5 8.825 13.074 8.825 21.436s-3.37 15.935-8.827 21.438l0.002-0.002-29.116 29.013h-0.512c-4.849 3.534-10.926 5.654-17.498 5.654-8.41 0-16.009-3.472-21.442-9.061l-185.283-185.249-133.837 133.837c-5.429 5.139-12.778 8.298-20.864 8.298-8.328 0-15.874-3.351-21.361-8.779l-26.075-26.075c-5.212-5.38-8.425-12.725-8.425-20.819 0-8.35 3.419-15.902 8.934-21.332l180.911-180.911c5.398-5.176 12.738-8.363 20.823-8.363 0.047 0 0.095 0 0.142 0h-0.007z" />
<glyph unicode="&#xe90c;" glyph-name="status" d="M227.533 453.7c0-62.831-50.935-113.766-113.766-113.766s-113.766 50.935-113.766 113.766c0 62.831 50.935 113.766 113.766 113.766s113.766-50.935 113.766-113.766zM625.766 453.7c0-62.831-50.935-113.766-113.766-113.766s-113.766 50.935-113.766 113.766c0 62.831 50.935 113.766 113.766 113.766s113.766-50.935 113.766-113.766zM1023.966 453.7c0-62.831-50.935-113.766-113.766-113.766s-113.766 50.935-113.766 113.766c0 62.831 50.935 113.766 113.766 113.766s113.766-50.935 113.766-113.766z" />
<glyph unicode="&#xe90d;" glyph-name="status1" d="M506.334 732.467c-62.831 0-113.766 50.935-113.766 113.766s50.935 113.766 113.766 113.766c62.831 0 113.766-50.935 113.766-113.766s-50.935-113.766-113.766-113.766zM506.334 334.234c-62.831 0-113.766 50.935-113.766 113.766s50.935 113.766 113.766 113.766c62.831 0 113.766-50.935 113.766-113.766s-50.935-113.766-113.766-113.766zM506.334-63.966c-62.831 0-113.766 50.935-113.766 113.766s50.935 113.766 113.766 113.766c62.831 0 113.766-50.935 113.766-113.766s-50.935-113.766-113.766-113.766z" />
<glyph unicode="&#xe90e;" glyph-name="inventry" d="M955.449 154.254h-23.751v295.31c-0.177 35.619-29.029 64.44-64.642 64.569h-146.871v101.035c0 13.966-11.321 25.287-25.287 25.287s-25.287-11.321-25.287-25.287v-101.035h-121.828c-10.735-8.321-24.394-13.339-39.225-13.339s-28.49 5.018-39.372 13.449l0.147-0.11h-147.086v295.822c0 7.855 6.368 14.222 14.222 14.222v0h55.893v-43.179c0.097-24.264 19.74-43.907 43.994-44.004h114.384c24.244 0.113 43.858 19.777 43.89 44.029v43.153h60.786c7.855 0 14.222-6.368 14.222-14.222v0-125.753c0-13.966 11.321-25.287 25.287-25.287s25.287 11.321 25.287 25.287v0 125.838c-0.177 35.646-29.034 64.494-64.667 64.654h-318.934c-35.665-0.145-64.538-29.018-64.683-64.669v-295.836h-121.685c-35.61-0.192-64.43-28.992-64.654-64.576v-295.304h-25.316c-32.674-0.733-58.88-27.393-58.88-60.174s26.207-59.441 58.812-60.173l0.068-0.001h895.289c32.674 0.733 58.88 27.393 58.88 60.174s-26.207 59.441-58.812 60.173l-0.068 0.001zM647.908 376.576h114.347c24.252 0.097 43.882 19.747 43.947 43.997v43.042h60.814c7.855 0 14.222-6.368 14.222-14.222v0-295.282h-347.307v295.396c0 7.855 6.368 14.222 14.222 14.222v0h55.865v-43.236c0.112-24.2 19.692-43.79 43.877-43.918h0.012zM654.279 427.179l0.142 36.636h101.177v-36.636zM266.78 154.453h-130.588v295.083c0 7.855 6.368 14.222 14.222 14.222v0h55.95v-43.236c0.048-24.263 19.688-43.923 43.939-44.004h114.554c24.234 0.113 43.842 19.76 43.89 43.999v43.098h60.814c7.855 0 14.222-6.368 14.222-14.222v0-295.282h-149.561c-13.966 0-25.287-11.321-25.287-25.287s11.321-25.287 25.287-25.287h621.369c0.059 0.001 0.129 0.002 0.199 0.002 5.294 0 9.586-4.292 9.586-9.586 0-4.933-3.727-8.996-8.519-9.527l-0.043-0.004h-896.54c-5.302 0-9.6 4.298-9.6 9.6s4.298 9.6 9.6 9.6v0h206.649c13.966 0 25.287 11.321 25.287 25.287s-11.321 25.287-25.287 25.287v0zM256.768 463.815h101.148v-36.636h-101.092zM544.057 824.178v-36.807h-101.319v36.807z" />
<glyph unicode="&#xe90f;" glyph-name="support" d="M780.459 232.687l-95.061 31.676-34.133 68.267c30.095 30.732 51.226 70.351 59.094 114.559l0.195 1.324 4.267 25.498h36.386c33.125 0.039 59.968 26.881 60.006 60.003v125.99c0 165.684-134.314 299.998-299.998 299.998s-299.998-134.314-299.998-299.998v0-125.986c0.039-25.954 16.522-48.049 39.586-56.426l0.418-0.133v-23.45c0.039-33.125 26.881-59.968 60.003-60.006h17.582c9.236-19.867 20.456-36.975 33.77-52.205l-0.217 0.254c2.833-3.413 5.803-6.417 8.806-9.489l-34.133-68.267-95.061-31.676c-112.434-43.259-190.772-150.39-190.772-275.819 0-0.281 0-0.561 0.001-0.841v0.043c0-11.047 8.955-20.002 20.002-20.002v0h879.991c11.047 0 20.002 8.955 20.002 20.002v0c0.001 0.261 0.001 0.57 0.001 0.879 0 125.416-78.323 232.538-188.724 275.123l-2.015 0.683zM771.209 534.016c-0.019-11.039-8.963-19.983-20-20.002h-30.517c5.086 39.39 8.465 81.271 9.83 122.573 0 1.161 0 2.287 0 3.413h40.585zM271.223 514.014c-11.039 0.019-19.983 8.963-20.002 20v105.986h40.585q0-3.14 0.205-6.281v-0.205c1.399-40.141 4.745-80.964 9.728-119.467h-30.515zM311.228 434.005c-11.039 0.019-19.983 8.963-20.002 20v20.004h16.384l4.267-25.532c0.819-4.847 1.809-9.694 2.97-14.473zM291.226 680.107h-39.253c10.58 134.839 122.601 240.247 259.243 240.247s248.663-105.408 259.186-239.346l0.057-0.901h-39.253c-1.519 110.568-91.386 199.645-202.114 199.885h-35.795c-110.723-0.279-200.551-89.341-202.068-199.742l-0.002-0.143zM493.295 840.090h35.772c89.587-0.291 162.099-72.983 162.099-162.61 0-0.072 0-0.145 0-0.217v0.011c0-6.281 0-11.776 0-16.759 0 0 0 0 0-0.205l-25.020 3.413c-71.124 10.579-133.242 43.106-180.678 90.361l0.010-0.010c-3.615 3.621-8.611 5.864-14.13 5.871h-0.001c-55.885-0.141-105.795-25.601-138.886-65.509l-0.241-0.3c8.738 82.083 77.447 145.512 161.041 145.852h0.035zM356.284 434.005c-12.665 57.103-21.236 123.787-23.829 192.001l-0.064 2.115 26.931 35.908c24.324 32.021 61.507 53.186 103.712 55.755l0.394 0.019c52.416-49.799 119.986-84.109 195.101-95.33l1.985-0.244 29.457-4.198c-1.98-41.779-5.973-83.695-11.742-122.231v0c-1.843-12.39-3.413-20.48-6.827-42.633-10.701-65.582-57.707-117.928-119.357-136.227l-1.202-0.306c-11.793-3.167-25.334-4.986-39.299-4.986-58.697 0-109.887 32.138-136.934 79.778l-0.407 0.779h40.755c8.39-23.419 30.271-39.926 56.047-40.209h40.038c33.141 0 60.006 26.866 60.006 60.006s-26.866 60.006-60.006 60.006v0h-40.004c-25.975-0.003-48.096-16.499-56.461-39.586l-0.132-0.418zM469.538 277.982c12.51-2.775 26.879-4.365 41.62-4.365 11.569 0 22.909 0.979 33.942 2.86l-1.185-0.167-35.328-37.376zM481.075 209.715l-63.42-67.072c-15.461 28.769-30.581 63.098-43.14 98.637l-1.643 5.333 23.893 47.787zM622.353 300.885l27.307-54.409c-14.207-40.834-29.326-75.128-46.781-107.992l1.998 4.124-67.891 67.891zM451.209 413.867c0 11.047 8.955 20.002 20.002 20.002v0h40.004c11.047 0 20.002-8.955 20.002-20.002s-8.955-20.002-20.002-20.002h-40.175c-10.966 0.116-19.813 9.023-19.831 20v0.002zM92.16-23.996c7.177 100.213 71.826 183.691 160.886 218.14l1.725 0.587 84.173 28.058c17.496-47.964 36.678-88.686 58.997-127.37l-2.062 3.876v-0.205c18.429-32.28 36.485-59.581 56.094-85.648l-1.48 2.055 24.61-39.492zM511.351-6.178l-27.136 43.554q-0.444 0.717-0.956 1.434c-14.55 19.183-29.421 41.148-43.139 63.886l-1.917 3.425 71.339 75.435 75.093-75.093c-15.68-26.261-30.608-48.315-46.618-69.506l1.391 1.922c-1.092-1.399 0.307 0.683-28.194-45.056zM547.362-23.996l24.61 39.492c18.279 24.232 36.461 51.78 52.923 80.442l2.066 3.902 0.307 0.546c19.999 34.481 38.974 74.854 54.523 116.889l1.797 5.547 84.173-28.058c90.784-35.035 155.434-118.513 162.564-217.914l0.047-0.813h-383.147z" />
<glyph unicode="&#xe910;" glyph-name="tax" d="M940.407 26.351c-0.751 3.004-73.591 301.227-83.9 400.691-8.975 95.227-48.896 179.744-109.458 244.782l0.231-0.251c-30.107 31.517-66.078 57.137-106.202 75.157l-2.137 0.858 47.787 110.933v6.827c-0.058 52.232-42.385 94.559-94.612 94.618h-184.735c-52.232-0.058-94.559-42.385-94.618-94.612v-6.833l49.493-114.79c-38.773-18.629-71.828-42.823-99.719-71.996l-0.121-0.128c-60.331-64.788-100.252-149.305-109.1-242.869l-0.127-1.662c-10.24-99.465-83.149-397.687-83.9-400.691-0.608-2.383-0.957-5.118-0.957-7.935 0-15.403 10.432-28.37 24.616-32.22l0.234-0.054c123.48-31.333 265.352-49.584 411.397-50.141l0.353-0.001c146.422 0.873 288.174 19.067 423.864 52.632l-12.387-2.592c14.475 3.865 24.962 16.859 24.962 32.303 0 2.831-0.352 5.58-1.016 8.205l0.049-0.231zM407.381 893.235h184.934c13.405-0.003 24.6-9.464 27.274-22.073l0.032-0.182-44.373-102.844c-21.13 4.69-45.399 7.377-70.296 7.377-28.258 0-55.707-3.461-81.947-9.983l2.329 0.49-45.261 104.96c2.707 12.791 13.901 22.252 27.306 22.255v0zM504.934 2.765c-129.040 0.959-254.13 15.632-374.564 42.629l11.76-2.215c19.558 81.681 68.779 292.215 77.551 377.003 14.336 138.547 94.993 242.995 205.824 276.821l-76.561-94.583 51.61-41.984 100.318 123.938 100.318-123.938 51.951 41.984-78.711 97.382c115.883-30.549 200.909-137.011 215.654-279.62 8.772-84.753 58.027-295.151 77.517-376.9-108.575-24.641-233.632-39.339-361.922-40.51l-0.848-0.006zM510.327 358.98c-40.243 4.779-78.097 10.547-78.097 42.155 0 33.519 36.42 45.022 76.186 45.022 0.987 0.035 2.147 0.054 3.311 0.054 31.156 0 59.014-14.121 77.522-36.313l0.131-0.162 51.746 23.893c-19.171 37.157-56.129 62.767-99.308 65.619l-0.362 0.019v41.677h-60.86v-41.677c-55.569-6.827-111.138-35.465-111.138-98.202 0-79.531 67.072-91.511 135.578-99.191 44.544-5.257 84.309-16.759 84.309-48.401 0-37.376-39.765-52.224-82.876-52.224-1.71-0.1-3.71-0.156-5.724-0.156-37.796 0-70.918 20.010-89.351 50.014l-0.26 0.455-56.525-23.893c22.887-47.935 70.486-80.722 125.865-81.917l0.155-0.003v-45.5h60.86v47.787c59.392 4.301 113.562 40.721 113.562 105.404-0.034 84.548-74.786 96.973-144.725 105.54z" />
<glyph unicode="&#xe911;" glyph-name="team" d="M893.705 484.017c-29.45 11.057-63.486 17.457-99.017 17.457-0.991 0-1.98-0.005-2.969-0.015l0.151 0.001c-8.191 0-14.83-6.64-14.83-14.83s6.64-14.83 14.83-14.83v0c1.352 0.026 2.946 0.040 4.543 0.040 30.096 0 58.98-5.188 85.807-14.72l-1.792 0.555c1.934-0.988 4.219-1.567 6.638-1.567 8.198 0 14.844 6.646 14.844 14.844 0 5.778-3.302 10.785-8.121 13.238l-0.084 0.039zM967.503 272.755l-61.299 17.655c-2.611 0.775-4.484 3.152-4.484 5.967v0 20.445c5.26 3.67 9.872 7.487 14.151 11.643l-0.027-0.026c20.607 19.882 33.404 47.74 33.404 78.587 0 0.129 0 0.258-0.001 0.387v-0.020 28.248l5.932 11.864c6.247 12.277 9.911 26.772 9.922 42.122v76.31c0 8.191-6.64 14.83-14.83 14.83v0h-142.548c-51.986-0.060-94.112-42.187-94.173-94.167v-0.959c0.013-12.768 3.064-24.82 8.469-35.476l-0.206 0.449 7.592-15.183v-24.223c0-0.009 0-0.020 0-0.031 0-38.311 18.607-72.276 47.277-93.351l0.322-0.226v-21.433c0-3.319 0-4.661-12.253-8.192l-29.908-8.545-86.51 31.462c0.027 0.338 0.043 0.732 0.043 1.129 0 3.975-1.564 7.584-4.109 10.247l0.005-0.006-27.648 29.025v48.834c2.931 2.401 5.791 4.873 8.58 7.486 33.744 31.775 54.783 76.715 54.872 126.571v38.857c10.010 21.12 15.854 45.887 15.854 72.019 0 0.042 0 0.084 0 0.126v-0.006 158.755c0 8.191-6.64 14.83-14.83 14.83v0h-222.067c-78.266-0.080-141.691-63.505-141.771-141.763v-31.787c0-0.036 0-0.078 0-0.12 0-26.132 5.845-50.899 16.298-73.065l-0.443 1.046v-33.51c0-0.151-0.001-0.329-0.001-0.507 0-55.076 24.556-104.416 63.316-137.67l0.243-0.204v-49.717l-27.648-29.025c-2.54-2.657-4.104-6.266-4.104-10.241 0-0.397 0.016-0.791 0.046-1.18l-0.003 0.051-91.313-33.192c-7.008-2.578-13.072-5.818-18.597-9.765l0.236 0.16-14.336 7.062c23.914 8.924 43.458 24.934 56.578 45.449l0.272 0.455c0.989 1.934 1.569 4.218 1.569 6.638s-0.58 4.705-1.608 6.722l0.039-0.084c-8.375 24.597-13.209 52.932-13.209 82.396 0 3.421 0.065 6.827 0.194 10.217l-0.015-0.488c-0.353 10.593-0.671 20.409-1.306 29.237-2.276 68.366-57.39 123.135-125.683 124.854l-0.163 0.003c-68.432-1.72-123.533-56.451-125.84-124.572l-0.006-0.215c-0.636-8.828-0.953-18.75-1.306-29.237 0.114-2.9 0.179-6.304 0.179-9.723 0-29.466-4.834-57.803-13.753-84.26l0.544 1.859c-0.989-1.934-1.569-4.218-1.569-6.638s0.58-4.705 1.608-6.722l-0.039 0.084c13.398-20.977 32.956-36.988 56.103-45.647l0.782-0.256-39.83-19.915c-20.61-10.395-34.499-31.393-34.499-55.636 0-0.079 0-0.158 0-0.238v0.012-109.462c0-8.191 6.64-14.83 14.83-14.83s14.83 6.64 14.83 14.83v0 109.462c0 0.032 0 0.070 0 0.108 0 12.725 7.293 23.747 17.928 29.114l0.187 0.085 49.434 24.717 17.231-16.384c11.17-10.643 26.324-17.191 43.008-17.191s31.838 6.548 43.033 17.215l-0.025-0.024 17.231 16.384 16.172-8.086c-7.473-11.751-11.917-26.064-11.935-41.414v-114.199c0-8.191 6.64-14.83 14.83-14.83s14.83 6.64 14.83 14.83v114.229c0.043 20.873 13.193 38.663 31.655 45.581l0.337 0.111 96.256 34.993 40.077-60.028c5.020-7.484 13.096-12.584 22.4-13.514l0.128-0.010q1.554 0 3.072 0c0.003 0 0.007 0 0.010 0 8.468 0 16.132 3.442 21.669 9.003l24.436 24.436v-154.553c0-8.191 6.64-14.83 14.83-14.83s14.83 6.64 14.83 14.83v0 154.342l24.435-24.435c5.538-5.562 13.202-9.004 21.67-9.004 0.004 0 0.007 0 0.011 0h-0.001q1.518 0 3.072 0c9.432 0.94 17.508 6.040 22.458 13.414l0.070 0.11 40.077 60.028 96.256-34.993c18.798-7.029 31.948-24.819 31.991-45.686v-114.199c0-8.191 6.64-14.83 14.83-14.83s14.83 6.64 14.83 14.83v0 114.406c-0.034 21.107-8.4 40.253-21.985 54.331l0.022-0.023 3.531 1.059c5.332 1.408 9.923 3.109 14.298 5.189l-0.492-0.21 37.888-37.888v-136.651c0-8.191 6.64-14.83 14.83-14.83s14.83 6.64 14.83 14.83v0 136.651l38.029 37.606c1.79-0.943 3.886-1.796 6.071-2.444l0.25-0.063 61.299-17.655c13.802-4.086 23.71-16.627 23.764-31.491v-122.745c0-8.191 6.64-14.83 14.83-14.83s14.83 6.64 14.83 14.83v0 122.88c-0.126 28.387-19.094 52.31-45.036 59.916l-0.443 0.111zM95.338 298.955c-18.968 6.028-35.053 16.607-47.548 30.483l-0.085 0.096c3.842 10.272 6.815 22.275 8.391 34.714l0.084 0.808c8.465-19.889 21.911-36.274 38.8-48.067l0.359-0.237zM180.083 258.807c-5.86-5.584-13.81-9.019-22.563-9.019s-16.703 3.436-22.577 9.032l0.013-0.013-13.806 13.1c2.225 4.146 3.532 9.071 3.532 14.301 0 0.062 0 0.124-0.001 0.186v-0.010 15.819c9.793-3.154 21.059-4.972 32.75-4.972s22.957 1.818 33.532 5.187l-0.781-0.215v-15.819c0-0.063-0.001-0.137-0.001-0.212 0-5.23 1.307-10.155 3.612-14.466l-0.081 0.165zM157.519 326.921c-44.369 0.040-80.326 35.997-80.366 80.362v0.004c0 0.022 0 0.048 0 0.073 0 8.152-6.608 14.76-14.76 14.76-0.886 0-1.753-0.078-2.596-0.228l0.089 0.013v3.814c0.318 10.205 0.636 19.844 1.236 28.248 1.67 26.956 12.792 51.033 30.059 69.221l-0.045-0.048c16.784 17.331 40.265 28.089 66.26 28.089s49.476-10.758 66.236-28.065l0.024-0.025c17.32-18.142 28.521-42.259 30.209-68.96l0.016-0.319c0.6-8.263 0.918-17.902 1.236-28.248v-2.648c-17.334 25.507-42.675 44.447-72.36 53.323l-0.944 0.242c-16.869 5.614-36.292 8.878-56.47 8.933h-0.027c-4.041-0.109-7.663-1.819-10.271-4.516l-0.004-0.004-26.765-27.754c-2.54-2.663-4.103-6.278-4.103-10.258 0-8.214 6.659-14.873 14.873-14.873 4.234 0 8.055 1.77 10.764 4.609l0.006 0.006 22.281 23.093c0.116 0 0.254 0.001 0.391 0.001 44.589 0 83.501-24.309 104.206-60.396l0.309-0.585c-6.165-38.668-39.276-67.867-79.207-67.867-0.060 0-0.12 0-0.18 0h0.009zM219.948 298.92v17.655c17.293 12.011 30.752 28.433 38.889 47.655l0.271 0.72c1.663-13.174 4.623-25.104 8.805-36.443l-0.366 1.132c-12.546-13.988-28.577-24.606-46.734-30.507l-0.758-0.213zM362.743 539.63v36.829c0 2.351-0.548 4.574-1.522 6.549l0.039-0.087c-9.082 18.208-14.4 39.661-14.407 62.356v31.781c0.1 61.887 50.283 112.020 112.179 112.040h207.274v-143.819c-0.007-22.697-5.325-44.15-14.779-63.187l0.372 0.829c-0.935-1.888-1.483-4.111-1.483-6.462v0-42.372c0.001-0.196 0.002-0.429 0.002-0.661 0-41.137-17.438-78.201-45.326-104.204l-0.084-0.078c-3.471-3.256-7.187-6.412-11.055-9.381l-0.35-0.258-0.247-0.177c-23.687-18.153-53.739-29.090-86.344-29.090-3.5 0-6.971 0.126-10.408 0.374l0.461-0.027c-75.503 6.757-134.238 69.724-134.238 146.41 0 0.927 0.009 1.851 0.026 2.774l-0.002-0.138zM446.287 241.046c-0.168-0.181-0.407-0.293-0.673-0.293-0.049 0-0.098 0.004-0.145 0.011l0.005-0.001c-0.315 0.026-0.585 0.201-0.739 0.455l-0.002 0.004-46.151 69.208 14.866 15.607 70.020-47.846zM506.668 298.496l-80.366 54.908v27.683c19.897-11.012 43.353-18.173 68.31-19.852l0.51-0.027q5.862-0.388 11.688-0.388c0.103 0 0.226 0 0.348 0 29.194 0 56.689 7.278 80.768 20.119l-0.926-0.451v-27.118zM568.497 241.223c-0.157-0.258-0.426-0.433-0.738-0.459h-0.003c-0.042-0.007-0.090-0.011-0.14-0.011-0.265 0-0.504 0.113-0.672 0.293l-0.001 0.001-37.288 37.146 70.020 47.846 14.866-15.607zM839.433 253.758l-33.686 33.686c0.584 2.585 0.919 5.553 0.919 8.6 0 0.080 0 0.16-0.001 0.24v-0.012 6.25c8.714-2.978 18.77-4.852 29.214-5.186l0.164-0.004h3.531c0.027 0 0.059 0 0.091 0 11.651 0 22.881 1.808 33.423 5.158l-0.781-0.214v-5.967c0-0.020 0-0.043 0-0.067 0-3.049 0.386-6.007 1.113-8.829l-0.053 0.245zM895.4 349.625c-14.363-14.027-34.027-22.681-55.712-22.681-0.959 0-1.914 0.017-2.864 0.050l0.138-0.004c-43.552 2.842-77.801 38.864-77.801 82.884 0 0.493 0.004 0.985 0.013 1.476l-0.001-0.074v27.754c0 0.009 0 0.019 0 0.030 0 2.408-0.574 4.682-1.593 6.693l0.039-0.085-9.181 18.326c-3.225 6.34-5.116 13.824-5.12 21.75v0.884c0.040 35.593 28.883 64.437 64.473 64.477h127.933v-61.617c-0.014-10.517-2.53-20.442-6.985-29.218l0.17 0.369-7.486-14.972c-0.98-1.926-1.554-4.2-1.554-6.608 0-0.011 0-0.021 0-0.032v0.002-31.779c0-0.055 0-0.121 0-0.186 0-22.55-9.362-42.914-24.41-57.417l-0.025-0.024zM934.665 200.015c-8.191 0-14.83-6.64-14.83-14.83v-95.338c0-8.191 6.64-14.83 14.83-14.83s14.83 6.64 14.83 14.83v95.338c0 8.191-6.64 14.83-14.83 14.83v0zM78.389 180.383c-8.191 0-14.83-6.64-14.83-14.83v-75.564c0-8.191 6.64-14.83 14.83-14.83s14.83 6.64 14.83 14.83v75.564c0 8.191-6.64 14.83-14.83 14.83v0zM628.242 639.876c-56.108 56.108-173.55 45.374-221.431 38.17-14.807-2.246-26.024-14.886-26.024-30.146 0-0.065 0-0.13 0.001-0.195v0.010-34.18c0-8.191 6.64-14.83 14.83-14.83s14.83 6.64 14.83 14.83v0 34.18c0 0.007 0 0.015 0 0.023 0 0.471 0.329 0.865 0.77 0.965l0.007 0.001c21.307 3.431 45.87 5.391 70.89 5.391 8.973 0 17.887-0.252 26.735-0.75l-1.228 0.055c0.802 0.015 1.748 0.024 2.696 0.024 36.893 0 70.741-13.043 97.182-34.77l-0.267 0.213c2.684-2.684 6.392-4.344 10.487-4.344 8.191 0 14.831 6.64 14.831 14.831 0 4.095-1.66 7.803-4.344 10.487v0zM331.988 168.271c-8.191 0-14.83-6.64-14.83-14.83v0-63.559c0-8.191 6.64-14.83 14.83-14.83s14.83 6.64 14.83 14.83v63.559c0 8.191-6.64 14.83-14.83 14.83v0zM681.172 168.271c-8.191 0-14.83-6.64-14.83-14.83v0-63.559c0-8.191 6.64-14.83 14.83-14.83s14.83 6.64 14.83 14.83v0 63.559c0 8.191-6.64 14.83-14.83 14.83v0z" />
<glyph unicode="&#xe912;" glyph-name="left-arrow" d="M242.79 399.701l438.579-438.409c12.898-12.781 30.655-20.679 50.256-20.679 39.437 0 71.407 31.97 71.407 71.407 0 19.593-7.891 37.342-20.668 50.244l-388.090 387.919 387.925 387.925c11.716 12.681 18.901 29.699 18.901 48.395 0 39.437-31.97 71.407-71.407 71.407-18.662 0-35.652-7.159-48.374-18.881l0.050 0.045-438.579-438.409c-12.917-12.921-20.905-30.769-20.905-50.483s7.989-37.562 20.906-50.483v0z" />
<glyph unicode="&#xe913;" glyph-name="money" d="M525.005 418.645c-0.794 0.088-1.714 0.139-2.645 0.139s-1.852-0.050-2.758-0.148l0.112 0.010c-13.938 2.133-24.493 14.031-24.508 28.397v0.002c0 13.545-10.98 24.525-24.525 24.525s-24.525-10.98-24.525-24.525v0c0.152-33.358 21.167-61.768 50.661-72.867l0.539-0.178v-10.24c0-13.535 10.972-24.508 24.508-24.508s24.508 10.972 24.508 24.508v0 9.216c32.308 9.914 55.392 39.484 55.392 74.445 0 42.922-34.793 77.718-77.715 77.722v0c-15.873 0-28.74 12.867-28.74 28.74s12.867 28.74 28.74 28.74c15.873 0 28.74-12.867 28.74-28.74v0c0-13.545 10.98-24.525 24.525-24.525s24.525 10.98 24.525 24.525v0c-0.269 34.836-23.186 64.249-54.74 74.258l-0.556 0.152v8.431c0 13.526-10.965 24.491-24.491 24.491s-24.491-10.965-24.491-24.491v0-9.762c-30.155-11.145-51.263-39.647-51.263-73.079 0-42.911 34.775-77.699 77.68-77.722h0.002c15.721-0.174 28.399-12.959 28.399-28.704 0-15.374-12.085-27.925-27.274-28.671l-0.067-0.003zM524.117 254.805c134.909 0 244.275 109.366 244.275 244.275s-109.366 244.275-244.275 244.275v0c-134.81-0.194-244.045-109.417-244.258-244.203v-0.021c0.136-134.859 109.404-244.151 244.241-244.326h0.017zM328.875 499.063c0.097 107.731 87.355 195.049 195.054 195.243h0.189c107.83 0 195.243-87.413 195.243-195.243s-87.413-195.243-195.243-195.243c-107.83 0-195.243 87.413-195.243 195.243v0zM955.665 193.741c-15.694 27.671-44.951 46.037-78.498 46.037-1.444 0-2.88-0.034-4.307-0.101l0.202 0.008-157.013-66.253c-19.654 30.684-53.141 51.013-91.448 52.152l-0.166 0.004-117.692 3.413c-18.339 0.558-35.457 5.265-50.612 13.208l0.641-0.306-11.981 6.144c-29.442 15.64-64.373 24.824-101.45 24.824-32.381 0-63.126-7.005-90.802-19.582l1.378 0.561 0.41 13.653c0.005 0.185 0.008 0.404 0.008 0.623 0 13.329-10.626 24.176-23.868 24.533l-0.033 0.001-129.809 3.413c-13.308-0.033-24.128-10.638-24.507-23.858l-0.001-0.035-7.817-283.307c-0.006-0.196-0.009-0.426-0.009-0.657 0-13.329 10.626-24.176 23.869-24.533l0.033-0.001 129.707-3.584c0.012 0 0.027 0 0.041 0 13.312 0 24.142 10.629 24.466 23.863l0.001 0.030 0.205 8.738 29.286 15.701c6.752 3.732 14.803 5.928 23.366 5.928 4.771 0 9.382-0.682 13.742-1.952l-0.346 0.087 201.796-56.627c13.585-2.971 29.199-4.686 45.208-4.71h0.018c0.107-0.009 0.232-0.014 0.358-0.014s0.251 0.005 0.375 0.016l-0.016-0.001c34.042 0.030 66.315 7.574 95.259 21.063l-1.393-0.583c1.199 0.537 2.219 1.107 3.182 1.754l-0.075-0.048 290.133 187.733c6.842 4.424 11.306 12.015 11.306 20.648 0 4.416-1.168 8.559-3.212 12.138l0.063-0.12zM516.028 140.834h-0.614c-0.107 0.002-0.232 0.003-0.358 0.003-13.537 0-24.51-10.974-24.51-24.51 0-13.411 10.77-24.306 24.133-24.508h0.019l194.219-5.359c0.032 0 0.070 0 0.108 0 13.299 0 24.113 10.637 24.4 23.867v0.027c0.024 0.866 0.037 1.885 0.037 2.907 0 4.798-0.299 9.526-0.879 14.167l0.056-0.554 125.815 59.46c5.441 2.807 11.875 4.452 18.694 4.452 7.003 0 13.6-1.736 19.385-4.8l-0.225 0.109-263.885-170.428c-21.149-9.753-45.892-15.441-71.963-15.441-12.27 0-24.247 1.26-35.806 3.657l1.137-0.197-199.68 56.047c-8.029 2.34-17.253 3.686-26.79 3.686-0.002 0-0.003 0-0.005 0v0c-0.019 0-0.041 0-0.063 0-16.999 0-32.983-4.35-46.898-11.996l0.506 0.255-4.608-2.458 4.028 148.139c25.776 16.457 57.204 26.231 90.914 26.231 28.892 0 56.107-7.179 79.959-19.851l-0.923 0.448 11.981-6.144c20.659-10.88 45.025-17.591 70.88-18.392l0.254-0.006 117.726-3.413c25.876-0.709 47.789-16.937 56.82-39.681l0.149-0.425zM204.561 244.156l-6.417-234.257-80.043 2.219 6.417 234.257zM523.913 756.361c13.513 0.039 24.454 10.992 24.474 24.506v154.626c0 13.535-10.972 24.508-24.508 24.508s-24.508-10.972-24.508-24.508v-154.624c0.019-13.539 11-24.508 24.542-24.508 0 0 0 0 0 0v0zM645.973 756.361c13.527 0.019 24.488 10.98 24.508 24.506v73.389c0 13.545-10.98 24.525-24.525 24.525s-24.525-10.98-24.525-24.525v0-73.216c0-0.041 0-0.089 0-0.137 0-13.554 10.988-24.542 24.542-24.542 0 0 0 0 0 0v0zM401.818 756.361c13.527 0.019 24.488 10.98 24.508 24.506v73.389c0 13.545-10.98 24.525-24.525 24.525s-24.525-10.98-24.525-24.525v0-73.216c0-0.041 0-0.089 0-0.137 0-13.554 10.988-24.542 24.542-24.542 0 0 0 0 0 0v0z" />
<glyph unicode="&#xe914;" glyph-name="uploading" d="M504.934 960l-204.254-204.288c-20.48-19.866-15.804-33.894 12.595-33.894h114.005v-248.218c0-42.887 34.767-77.653 77.653-77.653v0 0c42.887 0 77.653 34.767 77.653 77.653v248.252h114.039c28.365 0 32.87 14.029 12.527 33.894zM949.794 459.81h-117.419c-0.010 0-0.022 0-0.034 0-10.708 0-19.388-8.68-19.388-19.388 0-0.012 0-0.024 0-0.036v0.002-348.16h-605.525v348.16c0 0.010 0 0.022 0 0.034 0 10.708-8.68 19.388-19.388 19.388-0.012 0-0.024 0-0.036 0h-117.383c-0.010 0-0.022 0-0.034 0-10.708 0-19.388-8.68-19.388-19.388 0-0.012 0-0.024 0-0.036v0.002-397.21c0.097-59.166 48.044-107.101 107.205-107.179h703.597c59.177 0.058 107.135 48.005 107.213 107.171v397.218c0 0.020 0 0.044 0 0.068 0 10.689-8.665 19.354-19.354 19.354-0.024 0-0.048 0-0.072 0h0.004z" />
<glyph unicode="&#xe915;" glyph-name="reward" d="M902.315-21.436l-143.735 349.321c1.099 2.237 2.326 4.163 3.737 5.937l-0.050-0.066c8.118 5.439 17.635 9.547 27.861 11.747l0.538 0.097c26.038 4.565 48.105 18.853 62.748 38.907l0.194 0.278c4.829 11.135 7.637 24.104 7.637 37.728 0 12.195-2.25 23.865-6.359 34.617l0.223-0.665c-2.588 7.612-4.081 16.379-4.081 25.496 0 1.958 0.069 3.901 0.204 5.825l-0.015-0.259c4.657 9.174 10.647 16.973 17.82 23.493l0.066 0.059c21.357 14.053 35.261 37.915 35.261 65.024s-13.904 50.971-34.969 64.843l-0.292 0.181c-7.325 6.675-13.385 14.587-17.877 23.43l-0.214 0.463c-0.116 1.635-0.182 3.543-0.182 5.466 0 9.025 1.453 17.71 4.137 25.835l-0.166-0.581c3.927 10.158 6.203 21.913 6.203 34.199 0 13.618-2.795 26.584-7.844 38.354l0.242-0.634-0.887 1.468c-14.804 19.515-36.43 33.184-61.27 37.464l-0.58 0.083c-10.72 2.266-20.203 6.328-28.6 11.897l0.303-0.189c-5.357 8.002-9.406 17.381-11.577 27.457l-0.096 0.532c-4.455 25.949-18.631 47.963-38.571 62.58l-0.273 0.191c-11.156 4.908-24.161 7.765-37.834 7.765-12.161 0-23.795-2.26-34.503-6.383l0.657 0.222c-5.785-3.41-12.746-5.424-20.177-5.424-14.234 0-26.741 7.389-33.896 18.541l-0.096 0.16c-14.013 21.888-38.202 36.189-65.731 36.189-15.454 0-29.855-4.506-41.962-12.277l0.31 0.186c-9.45-6.016-17.258-13.759-23.168-22.849l-0.179-0.293c-6.698-7.304-14.605-13.369-23.425-17.906l-0.468-0.219c-1.681-0.124-3.642-0.195-5.619-0.195-8.973 0-17.605 1.458-25.673 4.149l0.572-0.165c-10.099 3.9-21.784 6.159-33.997 6.159-13.608 0-26.561-2.805-38.312-7.868l0.629 0.241-1.468-0.853c-19.425-14.843-33.019-36.461-37.26-61.271l-0.082-0.578c0 0 0 0 0 0 0-22.015-17.798-39.873-39.79-39.97h-0.009c-25.562-4.276-47.332-17.962-62.050-37.307l-0.175-0.24-0.887-1.434c-4.829-11.135-7.637-24.104-7.637-37.728 0-12.195 2.25-23.865 6.359-34.617l-0.223 0.665c2.588-7.612 4.081-16.379 4.081-25.496 0-1.958-0.069-3.901-0.204-5.825l0.015 0.259c-4.664-9.17-10.653-16.968-17.821-23.494l-0.065-0.058c-21.491-14.017-35.498-37.943-35.498-65.141 0-27.069 13.875-50.897 34.9-64.761l0.291-0.18c7.325-6.675 13.384-14.588 17.877-23.43l0.214-0.463c0.11-1.597 0.173-3.461 0.173-5.34 0-9.070-1.462-17.799-4.163-25.964l0.167 0.584c-3.91-10.141-6.174-21.874-6.174-34.136 0-13.629 2.798-26.604 7.85-38.383l-0.242 0.634 0.887-1.468c14.784-19.538 36.42-33.216 61.274-37.465l0.576-0.081c10.844-2.304 20.431-6.449 28.898-12.133l-0.295 0.186c1.375-1.685 2.592-3.591 3.577-5.63l0.075-0.172-143.497-349.252c-1.351-3.145-2.136-6.806-2.136-10.65 0-15.251 12.363-27.614 27.614-27.614 0.007 0 0.014 0 0.021 0h-0.001c0.054 0 0.118-0.001 0.182-0.001 4.495 0 8.733 1.098 12.461 3.041l-0.149-0.071 153.293 76.663 112.469-75.093c4.373-2.932 9.755-4.679 15.545-4.679 2.98 0 5.852 0.463 8.548 1.321l-0.199-0.055c8.060 2.658 14.36 8.7 17.31 16.4l0.064 0.189 39.117 104.277 34.27-102.844c3.831-11.064 14.161-18.867 26.315-18.867 5.723 0 11.042 1.73 15.462 4.696l-0.1-0.063 112.401 75.093 153.225-76.766c3.602-1.872 7.865-2.97 12.384-2.97 0.014 0 0.029 0 0.043 0h-0.002c0.045 0 0.098 0 0.151 0 3.061 0 6.002 0.513 8.742 1.456l-0.189-0.056c11.099 3.774 18.943 14.104 18.943 26.266 0 3.798-0.765 7.417-2.149 10.712l0.068-0.182zM312.866 256.478c4.584-5.328 9.896-9.858 15.82-13.488l0.291-0.166c11.158-4.855 24.155-7.679 37.812-7.679 12.164 0 23.805 2.241 34.533 6.331l-0.665-0.223c7.546 2.621 16.243 4.135 25.294 4.135 2.030 0 4.041-0.076 6.033-0.226l-0.265 0.016c9.398-4.852 17.387-11.054 24.067-18.46l0.066-0.074c6.178-5.769 11.81-10.718 17.067-14.985v-0.887l21.572-64.853-50.825-135.68-96.768 64.478c-4.306 2.908-9.612 4.642-15.324 4.642-0.025 0-0.049 0-0.074 0h0.004c-4.503-0.013-8.752-1.083-12.518-2.975l0.162 0.074-101.171-50.586zM427.076 301.261c-14.546-0.643-28.282-2.92-41.403-6.656l1.262 0.307c-6.504-2.456-14.023-3.879-21.875-3.879-3.411 0-6.76 0.268-10.026 0.785l0.361-0.047c-5.183 8.253-9.243 17.839-11.648 28.063l-0.128 0.643c-5.283 40.874-37.159 72.937-77.49 78.454l-0.471 0.053c-11.056 2.573-20.812 6.654-29.646 12.089l0.428-0.245c-0.407 2.743-0.639 5.909-0.639 9.13 0 8.144 1.486 15.94 4.202 23.133l-0.149-0.451c3.651 11.086 5.757 23.846 5.757 37.097 0 7.993-0.766 15.806-2.229 23.371l0.124-0.77c-6.987 18.703-17.901 34.535-31.812 47.115l-0.103 0.091c-7.339 7.817-19.593 20.958-19.593 26.487s12.425 18.807 19.388 26.283c14.397 12.975 25.53 29.294 32.201 47.748l0.26 0.824c1.172 6.364 1.842 13.687 1.842 21.166 0 13.428-2.16 26.352-6.151 38.443l0.248-0.866c-2.561 6.685-4.045 14.417-4.045 22.496 0 3.178 0.23 6.302 0.673 9.357l-0.041-0.348c8.257 5.145 17.838 9.201 28.046 11.643l0.661 0.133c40.935 5.372 73.009 37.365 78.455 77.801l0.051 0.467c2.56 10.93 6.617 20.57 12.016 29.293l-0.24-0.417c2.725 0.4 5.872 0.628 9.071 0.628 8.151 0 15.956-1.482 23.16-4.191l-0.453 0.15c11.101-3.688 23.88-5.815 37.157-5.815 7.948 0 15.717 0.762 23.239 2.218l-0.765-0.123c18.737 7.035 34.599 17.979 47.218 31.915l0.091 0.102c7.782 7.305 20.855 19.49 26.385 19.49s18.773-12.322 26.317-19.354c12.972-14.376 29.278-25.495 47.713-32.166l0.824-0.261c6.378-1.193 13.716-1.876 21.214-1.876 13.455 0 26.396 2.198 38.485 6.254l-0.853-0.248c6.509 2.422 14.028 3.824 21.875 3.824 3.386 0 6.712-0.261 9.957-0.764l-0.362 0.046c5.167-8.244 9.225-17.817 11.646-28.023l0.13-0.649c5.283-40.874 37.159-72.937 77.49-78.454l0.471-0.053c11.057-2.555 20.815-6.65 29.633-12.118l-0.415 0.24c0.399-2.726 0.627-5.873 0.627-9.073 0-8.162-1.481-15.978-4.19-23.194l0.15 0.455c-3.674-11.088-5.794-23.852-5.794-37.111 0-7.976 0.767-15.773 2.231-23.321l-0.124 0.767c7.018-18.772 17.979-34.662 31.948-47.285l0.104-0.092c7.27-7.782 19.456-20.855 19.456-26.351s-12.356-18.739-19.388-26.283c-14.38-12.976-25.508-29.28-32.199-47.712l-0.262-0.826c-1.172-6.365-1.843-13.688-1.843-21.169 0-13.428 2.16-26.35 6.152-38.44l-0.248 0.866c2.553-6.712 4.031-14.474 4.031-22.581 0-3.16-0.225-6.267-0.659-9.306l0.041 0.348c-8.247-5.137-17.816-9.191-28.009-11.641l-0.663-0.135c-40.925-5.369-72.994-37.345-78.455-77.766l-0.052-0.468c-2.564-10.943-6.621-20.594-12.017-29.331l0.241 0.42c-2.75-0.413-5.923-0.649-9.152-0.649-8.113 0-15.879 1.49-23.038 4.211l0.445-0.149c-11.079 3.682-23.834 5.806-37.085 5.806-7.986 0-15.791-0.771-23.346-2.244l0.766 0.124c-18.675-6.971-34.484-17.862-47.048-31.745l-0.090-0.101c-7.851-7.373-21.026-19.661-26.624-19.661s-18.807 12.356-26.317 19.319c-12.832 14.305-28.961 25.392-47.208 32.096l-0.818 0.263c-5.429 1.474-11.662 2.321-18.093 2.321-0.035 0-0.070 0-0.105 0h0.005zM585.523 226.987c6.686 7.333 14.595 13.411 23.429 17.942l0.465 0.216c1.541 0.1 3.342 0.157 5.156 0.157 9.13 0 17.924-1.443 26.164-4.114l-0.6 0.168c10.11-3.894 21.807-6.149 34.031-6.149 14.049 0 27.403 2.979 39.463 8.34l-0.619-0.246c5.839 3.679 10.835 8.034 15.077 13.047l0.078 0.094 94.993-230.639-101.547 50.825c-3.611 1.858-7.88 2.946-12.403 2.946-5.737 0-11.064-1.752-15.477-4.749l0.096 0.062-95.573-63.727-61.44 184.32c19.403 6.282 35.838 17.208 48.579 31.499l0.095 0.108zM778.786 576c0 142.629-115.624 258.253-258.253 258.253s-258.253-115.624-258.253-258.253c0-142.629 115.624-258.253 258.253-258.253v0c142.559 0.175 258.078 115.694 258.253 258.236v0.017zM723.388 576c0-0.010 0-0.022 0-0.034 0-112.033-90.821-202.854-202.854-202.854s-202.854 90.821-202.854 202.854c0 112.033 90.821 202.854 202.854 202.854v0c111.874-0.348 202.472-90.946 202.82-202.787v-0.033z" />
<glyph unicode="&#xe916;" glyph-name="bank" d="M1006.933 700.245l-479.881 256c-4.364 2.365-9.555 3.755-15.070 3.755s-10.706-1.39-15.24-3.839l0.17 0.084-479.846-256c-10.214-5.475-17.047-16.068-17.067-28.26v-159.986h64v-390.793c-37.168-13.483-63.364-48.214-63.999-89.148l-0.001-0.076v-95.983h1024v95.983c-0.651 40.997-26.842 75.712-63.331 88.978l-0.669 0.213v390.827h64v159.983c-0.020 12.194-6.853 22.788-16.896 28.179l-0.171 0.084zM416.017 512v-384h-160.017v384zM768.034 512v-384h-160.017v384zM544.017 128h-64v384h64zM192 128h-64v384h64zM960 0h-896v31.983c1.341 17.973 16.253 32.047 34.453 32.047 0.74 0 1.475-0.023 2.204-0.069l-0.1 0.005h822.886c0.629 0.041 1.364 0.064 2.104 0.064 18.199 0 33.111-14.074 34.446-31.932l0.007-0.115zM896 128h-64v384h64zM64 576v76.8l448 238.933 448-238.933v-76.8zM557.261 781.244c11.578-11.581 18.739-27.579 18.739-45.249 0-35.346-28.654-64-64-64s-64 28.654-64 64c0 17.67 7.161 33.668 18.739 45.249v0c11.582 11.585 27.585 18.751 45.261 18.751s33.678-7.166 45.261-18.751v0z" />
<glyph unicode="&#xe917;" glyph-name="bell" d="M935.014 254.601l-98.987 98.714v155.716c-10.681 137.147-103.999 249.942-229.776 289.266l-2.331 0.628c8.062 14.892 12.8 32.601 12.8 51.417 0 60.569-49.101 109.67-109.67 109.67s-109.67-49.101-109.67-109.67c0-18.816 4.738-36.525 13.087-51.999l-0.287 0.582c-128.108-39.953-221.426-152.747-232.036-288.761l-0.071-1.133v-155.716l-98.987-98.714c-6.678-6.622-10.814-15.798-10.82-25.94v-109.671c0.078-20.131 16.415-36.42 36.557-36.42 0 0 0 0 0 0h222.857c17.389-84.293 90.999-146.765 179.2-146.765s161.811 62.472 178.996 145.582l0.204 1.183h222.993c20.083 0.077 36.343 16.337 36.42 36.413v109.677c0.001 0.095 0.001 0.208 0.001 0.321 0 9.982-4 19.029-10.485 25.626l0.005-0.005zM470.391 850.125c0 20.19 16.367 36.557 36.557 36.557s36.557-16.367 36.557-36.557c0-20.19-16.367-36.557-36.557-36.557v0c-20.19 0-36.557 16.367-36.557 36.557v0zM251.051 484.557c-0.065 2.157-0.102 4.694-0.102 7.24 0 141.385 114.615 256 256 256s256-114.615 256-256c0-2.546-0.037-5.083-0.111-7.611l0.009 0.371v-24.849c-14.419-9.667-32.163-15.428-51.252-15.428-1.254 0-2.502 0.025-3.744 0.074l0.178-0.006c-0.082 0-0.18 0-0.277 0-30.301 0-57.731 12.288-77.58 32.153l-0.001 0.001c-32.394 29.711-75.758 47.919-123.375 47.919s-90.981-18.208-123.51-48.041l0.135 0.122c-19.85-19.866-47.28-32.154-77.581-32.154-0.097 0-0.195 0-0.292 0h0.015c-1.045-0.041-2.272-0.065-3.504-0.065-18.991 0-36.671 5.613-51.472 15.271l0.362-0.222zM507.051 9.318c-0.034 0-0.074 0-0.114 0-47.516 0-87.975 30.218-103.206 72.486l-0.241 0.764h206.916c-15.472-43.032-55.93-73.25-103.446-73.25-0.004 0-0.008 0-0.012 0h0.001zM872.619 155.546h-731.238v58.027l98.987 98.714c6.561 6.606 10.616 15.709 10.616 25.758 0 0.064 0 0.129-0.001 0.193v-0.010 40.96c15.521-5.122 33.387-8.076 51.943-8.076 0.939 0 1.876 0.008 2.811 0.023l-0.141-0.002c0.368-0.003 0.803-0.004 1.239-0.004 47.342 0 90.395 18.366 122.423 48.361l-0.099-0.092c19.86 19.929 47.334 32.261 77.687 32.261s57.827-12.331 77.684-32.258l0.003-0.003c31.928-29.903 74.981-48.269 122.324-48.269 0.436 0 0.871 0.002 1.306 0.005h-0.067c0.74-0.011 1.613-0.018 2.488-0.018 18.69 0 36.69 2.953 53.559 8.417l-1.229-0.344v-40.96c0-0.054 0-0.119 0-0.183 0-10.049 4.055-19.152 10.618-25.76l-0.002 0.002 98.987-98.714z" />
<glyph unicode="&#xe918;" glyph-name="right-arrow" d="M782.199 399.701l-438.409-438.409c-12.924-12.924-30.779-20.918-50.5-20.918-39.443 0-71.418 31.975-71.418 71.418 0 19.722 7.994 37.576 20.918 50.5v0l387.959 387.925-387.959 387.891c-12.771 12.896-20.662 30.646-20.662 50.239 0 39.437 31.97 71.407 71.407 71.407 19.601 0 37.358-7.898 50.261-20.684l438.438-438.438c12.917-12.921 20.905-30.769 20.905-50.483s-7.989-37.562-20.906-50.483v0z" />
<glyph unicode="&#xe919;" glyph-name="search" d="M986.522 31.266l-242.688 252.382c59.875 70.993 96.263 163.497 96.263 264.499 0 227.272-184.24 411.511-411.511 411.511s-411.511-184.24-411.511-411.511c0-227.272 184.24-411.511 411.511-411.511 0.058 0 0.116 0 0.173 0h-0.009c0.307-0.001 0.67-0.001 1.034-0.001 87.999 0 169.48 27.909 236.074 75.358l-1.247-0.844 244.531-254.327c9.816-10.419 23.706-16.907 39.111-16.907 29.653 0 53.692 24.039 53.692 53.692 0 14.675-5.887 27.975-15.429 37.667l0.007-0.007zM428.749 852.617c168.060 0 304.299-136.239 304.299-304.299s-136.239-304.299-304.299-304.299c-168.060 0-304.299 136.239-304.299 304.299v0c0.194 167.982 136.318 304.105 304.28 304.299h0.018z" />
<glyph unicode="&#xe91a;" glyph-name="calender" d="M904.048 880.011h-47.981v79.989h-80.050v-79.989h-528.034v79.989h-79.989v-79.989h-47.981c-66.253-0.070-119.944-53.76-120.013-120.007v-703.808c0.070-66.253 53.76-119.944 120.007-120.013h784.041c66.253 0.070 119.944 53.76 120.013 120.007v703.808c-0.070 66.253-53.76 119.944-120.007 120.013h-0.007zM944.073 56.013c0-22.105-17.92-40.025-40.025-40.025v0h-784.034c-22.105 0-40.025 17.92-40.025 40.025v0 527.973h864.023zM944.073 664.036h-864.084v95.962c0 22.105 17.92 40.025 40.025 40.025h47.981v-80.050h79.989v80.050h528.034v-80.050h79.989v80.050h47.981c22.105 0 40.025-17.92 40.025-40.025v0zM389.049 176.333c0-33.8-27.4-61.2-61.2-61.2s-61.2 27.4-61.2 61.2c0 33.8 27.4 61.2 61.2 61.2s61.2-27.4 61.2-61.2zM389.049 421.133c0-33.8-27.4-61.2-61.2-61.2s-61.2 27.4-61.2 61.2c0 33.8 27.4 61.2 61.2 61.2s61.2-27.4 61.2-61.2zM756.25 176.333c0-33.8-27.4-61.2-61.2-61.2s-61.2 27.4-61.2 61.2c0 33.8 27.4 61.2 61.2 61.2s61.2-27.4 61.2-61.2zM756.25 421.133c0-33.8-27.4-61.2-61.2-61.2s-61.2 27.4-61.2 61.2c0 33.8 27.4 61.2 61.2 61.2s61.2-27.4 61.2-61.2z" />
<glyph unicode="&#xe91b;" glyph-name="cart" d="M33.417 908.8c-17.99-0.593-32.349-15.32-32.349-33.399s14.358-32.806 32.294-33.398l0.054-0.001h128.717l114.825-541.764c4.54-20.48 17.92-37.376 34.782-37.239h556.749c0.318-0.011 0.692-0.017 1.068-0.017 18.455 0 33.417 14.961 33.417 33.417s-14.961 33.417-33.417 33.417c-0.376 0-0.75-0.006-1.122-0.018l0.054 0.001h-529.579l-14.268 66.799h588.356c15.629 0.498 28.593 11.335 32.307 25.874l0.052 0.238 78.097 334.029c0.312 1.753 0.49 3.772 0.49 5.832 0 18.563-14.472 33.747-32.749 34.884l-0.1 0.005h-750.933l-18.091 84.89c-3.679 15.022-16.847 26.059-32.657 26.452l-0.043 0.001zM254.020 730.658h174.080l16.691-100.215h-169.574zM496.196 730.658h210.159l-16.691-100.215h-176.777zM774.554 730.658h174.319l-23.313-100.215h-167.731zM289.587 563.61h166.229l16.691-100.215h-161.792zM524.117 563.61h154.487l-16.964-100.181h-120.934zM746.803 563.61h163.191l-23.313-100.215h-156.774zM434.347 218.453c-0.030 0-0.066 0-0.102 0-61.493 0-111.343-49.85-111.343-111.343s49.85-111.343 111.343-111.343c61.493 0 111.343 49.85 111.343 111.343v0c-0.289 61.376-49.967 111.054-111.315 111.343h-0.028zM746.121 218.453c-61.493 0-111.343-49.85-111.343-111.343s49.85-111.343 111.343-111.343c61.493 0 111.343 49.85 111.343 111.343v0c-0.289 61.376-49.967 111.054-111.315 111.343h-0.028zM434.347 151.654c24.507 0 44.373-19.867 44.373-44.373s-19.867-44.373-44.373-44.373c-24.507 0-44.373 19.867-44.373 44.373v0c-0.001 0.102-0.001 0.222-0.001 0.342 0 24.318 19.714 44.032 44.032 44.032 0.084 0 0.169 0 0.253-0.001h-0.013zM746.121 151.654c24.507 0 44.373-19.867 44.373-44.373s-19.867-44.373-44.373-44.373c-24.507 0-44.373 19.867-44.373 44.373v0c-0.001 0.102-0.001 0.222-0.001 0.342 0 24.318 19.714 44.032 44.032 44.032 0.072 0 0.145 0 0.217-0.001h-0.011z" />
<glyph unicode="&#xe91c;" glyph-name="clock" d="M512-14.609c-278.255 0-504.627 209.408-504.627 466.807s226.372 466.842 504.627 466.842 504.627-209.408 504.627-466.807-226.372-466.842-504.627-466.842zM512 846.165c-234.803 0-425.847-176.742-425.847-393.933s191.147-393.933 425.847-393.933 425.847 176.708 425.847 393.933-191.044 393.933-425.847 393.933zM512-21.436c282.317 0 512 212.48 512 473.634s-229.683 473.668-512 473.668-512-212.48-512-473.6 229.683-473.702 512-473.702zM512 912.213c274.193 0 497.22-206.336 497.22-459.981s-223.027-460.015-497.22-460.015-497.22 206.37-497.22 460.049 223.027 459.947 497.22 459.947zM512 51.439c238.933 0 433.22 179.78 433.22 400.794s-194.287 400.759-433.22 400.759-433.22-179.78-433.22-400.725 194.287-400.828 433.22-400.828zM512 839.339c230.741 0 418.475-173.67 418.475-387.106s-187.733-387.14-418.475-387.14-418.475 173.67-418.475 387.174 187.733 387.072 418.475 387.072zM689.22 390.758h-196.915c-0.417-0.016-0.906-0.026-1.398-0.026-20.445 0-37.122 16.136-37.989 36.368l-0.003 0.078v273.271c1.528 20.553 18.579 36.65 39.39 36.65s37.862-16.097 39.382-36.519l0.008-0.131v-236.817h157.525c0.884 0.076 1.914 0.119 2.953 0.119 20.19 0 36.557-16.367 36.557-36.557s-16.367-36.557-36.557-36.557c-1.039 0-2.069 0.043-3.086 0.128l0.133-0.009zM492.476 383.898h196.915c0.963-0.076 2.085-0.119 3.217-0.119 23.96 0 43.383 19.423 43.383 43.383s-19.423 43.383-43.383 43.383c-1.132 0-2.254-0.043-3.365-0.129l0.147 0.009h-150.187v229.99c-1.916 24.317-22.119 43.323-46.763 43.323s-44.847-19.007-46.752-43.16l-0.010-0.163v-273.306c1.054-24.103 20.851-43.244 45.118-43.244 0.59 0 1.178 0.011 1.763 0.034l-0.084-0.003zM689.391 456.772c0.673 0.054 1.458 0.085 2.25 0.085 16.401 0 29.696-13.295 29.696-29.696s-13.295-29.696-29.696-29.696c-0.792 0-1.576 0.031-2.352 0.092l0.103-0.006h-196.915c-0.344-0.014-0.747-0.022-1.153-0.022-16.612 0-30.161 13.112-30.862 29.552l-0.002 0.063v273.271c1.256 16.685 15.103 29.747 32 29.747s30.744-13.062 31.993-29.639l0.007-0.107v-243.644z" />
<glyph unicode="&#xe91d;" glyph-name="service" d="M27.854 806.597v0.935l42.75-74.588c4.002-6.804 10.456-11.801 18.12-13.811l0.207-0.046 58.583-14.55 219.434-219.572 41.573 41.573-225.184 225.358c-3.661 3.643-8.261 6.346-13.406 7.713l-0.209 0.047-54.321 13.615-48.917 85.951 34.644 34.644 85.986-49.125 13.615-54.183c1.298-5.467 4.022-10.172 7.757-13.854l225.187-225.187 41.573 41.573-219.434 219.503-14.585 58.721c-2.088 7.807-7.079 14.198-13.717 18.078l-0.14 0.076-116.403 66.689c-4.182 2.423-9.201 3.853-14.554 3.853-8.132 0-15.493-3.3-20.817-8.634v0l-63.883-63.883-9.388-12.749c-1.349-3.251-2.132-7.028-2.132-10.987 0-5.308 1.408-10.288 3.87-14.585l-0.076 0.143zM299.045 276.895l384.079 384.093 41.645-41.644-384.079-384.093-41.645 41.644zM287.647 247.066c-5.257 8.61-14.591 14.278-25.251 14.308h-99.847c-10.664-0.030-19.998-5.698-25.182-14.178l-0.074-0.13-49.922-83.145c-2.627-4.335-4.182-9.573-4.182-15.174s1.555-10.839 4.256-15.306l-0.074 0.132 49.956-83.145c5.297-8.536 14.597-14.149 25.213-14.204h99.851c10.641 0.057 19.955 5.684 25.182 14.111l0.073 0.127 49.887 83.145c2.635 4.327 4.194 9.56 4.194 15.157s-1.56 10.83-4.268 15.287l0.074-0.131zM277.878 148.92l-32.149-53.871h-66.655l-32.219 53.871 32.219 53.906h66.447zM980.557 187.444l-198.405 198.439c-5.404 5.132-12.726 8.288-20.786 8.288s-15.383-3.156-20.799-8.301l0.013 0.012-7.76-7.829c-1.050-0.911-2.43-1.465-3.94-1.465-1.721 0-3.274 0.721-4.373 1.879l-0.002 0.003c-0.967 1.041-1.56 2.441-1.56 3.979 0 1.246 0.389 2.401 1.053 3.35l-0.013-0.019 8.349 8.315c5.291 5.333 8.56 12.678 8.56 20.786s-3.27 15.453-8.562 20.788l0.002-0.002-29.031 29.17 73.41 73.375c6.086-1.123 13.563-2.047 21.151-2.563l0.64-0.035 12.818-0.554h0.45c116.772 0.059 211.447 94.587 211.743 211.298v0.029c0 0.116 0 0.253 0 0.391 0 18.492-2.363 36.433-6.804 53.536l0.325-1.476c-3.243 13.003-14.82 22.485-28.612 22.485-8.133 0-15.495-3.297-20.824-8.627v0l-97.661-97.834-68.525 22.865-22.83 68.491 97.834 97.938c5.314 5.326 8.599 12.678 8.599 20.797 0 13.782-9.468 25.352-22.254 28.562l-0.203 0.043c-15.609 4.118-33.529 6.483-52.001 6.483-116.98 0-211.812-94.831-211.812-211.812 0-0.221 0-0.441 0.001-0.662v0.034c0.038-12.266 1.133-24.249 3.198-35.897l-0.184 1.254-354.752-354.683c-10.396 1.862-22.381 2.944-34.612 2.979h-0.031c-117.325 0-212.435-95.111-212.435-212.435s95.111-212.435 212.435-212.435c117.325 0 212.435 95.111 212.435 212.435 0 0.012 0 0.024 0 0.036v-0.002c-0.041 12.268-1.135 24.251-3.198 35.899l0.184-1.256 73.341 73.306 29.031-29.031c5.407-5.124 12.729-8.275 20.786-8.275s15.379 3.151 20.8 8.288l-0.014-0.013 8.28 7.795c1.088 0.866 2.482 1.39 3.998 1.39 1.631 0 3.12-0.606 4.255-1.604l-0.007 0.006c1.010-1.045 1.632-2.471 1.632-4.042 0-1.387-0.485-2.66-1.295-3.66l0.009 0.011-8.315-8.315c-5.307-5.325-8.589-12.673-8.589-20.786s3.281-15.461 8.59-20.787l198.369-198.404c26.907-28.71 65.064-46.598 107.398-46.598 81.22 0 147.063 65.842 147.063 147.063 0 42.334-17.888 80.491-46.518 107.323l-0.080 0.075zM620.019 281.745c-11.166 9.462-25.736 15.216-41.649 15.216-11.632 0-22.546-3.074-31.974-8.454l0.318 0.167-9.977 10.012 124.718 124.718 9.943-9.908c-5.218-9.126-8.294-20.057-8.294-31.707 0-35.76 28.989-64.749 64.749-64.749 11.694 0 22.665 3.1 32.134 8.524l-0.316-0.167 176.163-176.441-124.718-124.718-176.233 176.267c5.205 9.105 8.274 20.012 8.274 31.635 0 2.084-0.099 4.145-0.292 6.179l0.020-0.26c-1.556 17.642-10.078 33.036-22.762 43.602l-0.103 0.083zM740.649 585.57l-371.727-371.693c-5.368-5.325-8.691-12.704-8.691-20.86 0-2.558 0.327-5.040 0.941-7.406l-0.045 0.204c3.051-11.48 4.803-24.659 4.803-38.247 0-85.43-69.255-154.684-154.684-154.684s-154.684 69.255-154.684 154.684c0 85.43 69.255 154.684 154.684 154.684 13.605 0 26.8-1.757 39.371-5.055l-1.077 0.24c2.098-0.526 4.507-0.828 6.987-0.828 8.172 0 15.578 3.278 20.974 8.592l377.232 377.266c5.319 5.348 8.606 12.721 8.606 20.861 0 2.545-0.321 5.014-0.925 7.371l0.045-0.205c-3.009 11.335-4.738 24.348-4.738 37.765 0 70.903 48.267 130.533 113.735 147.825l1.066 0.239c4.257 1.167 9.662 2.28 15.166 3.090l0.805 0.097-64.611-64.645c-5.341-5.31-8.646-12.662-8.646-20.786 0-3.36 0.565-6.588 1.606-9.594l-0.062 0.206 33.327-100.017c3.142-8.578 9.873-15.184 18.325-18.091l0.209-0.063 99.774-33.258c2.782-0.957 5.988-1.509 9.323-1.509 8.156 0 15.54 3.304 20.886 8.646v0l64.611 64.611c-11.058-74.111-74.079-130.365-150.314-130.745h-0.040c-13.981 0.476-27.279 2.181-40.153 5.015l1.456-0.269c-2.146 0.558-4.61 0.878-7.149 0.878-8.134 0-15.501-3.287-20.845-8.604l-5.611-5.611zM907.77 0.992c-9.135-3.538-19.707-5.595-30.756-5.612h-0.388c-0.051 0-0.112 0-0.173 0-3.602 0-7.152 0.227-10.635 0.666l0.414-0.043 97.834 97.799c0.384-3.092 0.603-6.671 0.603-10.302 0-37.474-23.352-69.495-56.298-82.303l-0.602-0.206zM664.918 253.441l41.638 41.638 184.458-184.458-41.638-41.638-184.458 184.458z" />
<glyph unicode="&#xe91e;" glyph-name="comparison" d="M1019.767 334.895l-172.55 287.549 154.834 43.009c12.824 3.6 22.070 15.189 22.070 28.936 0 16.571-13.433 30.004-30.004 30.004-2.887 0-5.678-0.408-8.32-1.169l0.212 0.052-443.919-123.328v330.046c0 16.571-13.433 30.004-30.004 30.004s-30.004-13.433-30.004-30.004v-346.704l-460.099-127.799c-12.824-3.6-22.070-15.189-22.070-28.936 0-16.571 13.433-30.004 30.004-30.004 2.887 0 5.678 0.408 8.32 1.169l-0.212-0.052 120.392 33.384-154.117-256.828c-2.68-4.403-4.267-9.727-4.267-15.422 0-0.002 0-0.005 0-0.007v0c0-123.047 99.749-222.796 222.796-222.796s222.796 99.749 222.796 222.796v0c0 0.002 0 0.004 0 0.007 0 5.695-1.587 11.019-4.342 15.555l0.075-0.133-172.55 287.549 468.018 129.984-154.117-256.862c-2.68-4.403-4.267-9.727-4.267-15.422 0-0.002 0-0.005 0-0.007v0c0-0.005 0-0.011 0-0.017 0-123.056 99.757-222.813 222.813-222.813 123.050 0 222.803 99.747 222.813 222.795v0.001c0 0.001 0 0.002 0 0.003 0 5.712-1.6 11.050-4.376 15.591l0.075-0.131zM222.83-4.026c-79.25 0.119-145.238 56.755-159.822 131.755l-0.166 1.028h320.011c-14.753-76.039-80.758-132.682-160.011-132.783h-0.011zM362.781 188.766h-279.766l139.951 233.036zM801.238 582.507l139.951-233.036h-279.766zM801.238 156.645c-79.25 0.119-145.238 56.755-159.822 131.755l-0.166 1.028h320.011c-14.753-76.039-80.758-132.682-160.011-132.783h-0.011z" />
<glyph unicode="&#xe91f;" glyph-name="coupon" d="M927.983 72.533h-831.966c-52.981 0.058-95.92 42.973-96.017 95.939v160.060c0 0.010 0 0.022 0 0.034 0 17.664 14.319 31.983 31.983 31.983 0.012 0 0.024 0 0.036 0h-0.002c0.539-0.011 1.174-0.017 1.81-0.017 53.029 0 96.017 42.988 96.017 96.017s-42.988 96.017-96.017 96.017c-0.637 0-1.272-0.006-1.905-0.019l0.095 0.001c-0.010 0-0.022 0-0.034 0-17.664 0-31.983 14.319-31.983 31.983 0 0 0 0 0 0v0 159.983c0.058 53.005 43.012 95.959 96.011 96.017h832.006c52.991-0.078 95.925-43.024 95.983-96.012v-160.022c0-0.010 0-0.022 0-0.034 0-17.664-14.319-31.983-31.983-31.983-0.012 0-0.024 0-0.036 0h0.002c-52.244-1.016-94.207-43.608-94.207-96s41.962-94.984 94.112-95.999l0.095-0.001c0.010 0 0.022 0 0.034 0 17.664 0 31.983-14.319 31.983-31.983 0-0.012 0-0.024 0-0.036v0.002-159.983c-0.097-52.976-43.036-95.891-96.012-95.949h-0.006zM64 299.759v-131.277c0-17.683 14.335-32.017 32.017-32.017v0h832c17.671 0 31.998 14.315 32.017 31.981v131.313c-73.538 15.428-127.966 79.745-127.966 156.774s54.428 141.346 126.924 156.591l1.042 0.183v131.209c0 17.683-14.335 32.017-32.017 32.017h-832c-17.683 0-32.017-14.335-32.017-32.017v0-131.209c73.538-15.428 127.966-79.745 127.966-156.774s-54.428-141.346-126.924-156.591l-1.042-0.183zM386.048 212.207l192 512 59.957-22.484-192-512zM360.619 445.747c-53.029 0-96.017 42.988-96.017 96.017s42.988 96.017 96.017 96.017c53.029 0 96.017-42.988 96.017-96.017v0c-0.058-53.005-43.012-95.959-96.011-96.017h-0.006zM360.619 573.747c-17.683 0-32.017-14.335-32.017-32.017s14.335-32.017 32.017-32.017c17.683 0 32.017 14.335 32.017 32.017v0c0 0.041 0 0.089 0 0.137 0 17.683-14.335 32.017-32.017 32.017 0 0 0 0 0 0v0zM691.405 247.296c-53.029 0-96.017 42.988-96.017 96.017s42.988 96.017 96.017 96.017c53.029 0 96.017-42.988 96.017-96.017v0c-0.058-53.005-43.012-95.959-96.011-96.017h-0.006zM691.405 375.296c-17.683 0-32.017-14.335-32.017-32.017s14.335-32.017 32.017-32.017c17.683 0 32.017 14.335 32.017 32.017v0c0 17.683-14.335 32.017-32.017 32.017v0z" />
<glyph unicode="&#xe920;" glyph-name="settings" d="M958.2 576.462h-92.49c-4.757-1.42-10.207 3.006-12.453 8.258-0.575 1.249-0.911 2.71-0.911 4.25 0 3.234 1.48 6.122 3.799 8.024l0.018 0.015 65.173 62.233c13.105 12.694 21.24 30.452 21.24 50.11s-8.135 37.416-21.221 50.092l-0.018 0.018-84.001 79.971c-13.318 11.978-31.029 19.304-50.451 19.304-19.647 0-37.543-7.497-50.983-19.786l0.058 0.052-65.503-62.563c-2.61-2.412-6.114-3.891-9.962-3.891-2.285 0-4.448 0.521-6.377 1.452l0.088-0.038c-4.414 1.649-7.5 5.831-7.5 10.733 0 0.071 0.001 0.141 0.002 0.212v-0.011 88.857c-1.636 38.765-33.404 69.585-72.396 69.698h-117.209c-0.091 0-0.198 0.001-0.305 0.001-39.276 0-71.274-31.157-72.626-70.104l-0.003-0.124v-88.427c-0.108-5.289-3.663-9.72-8.505-11.144l-0.084-0.021c-1.61-0.702-3.486-1.11-5.457-1.11-3.886 0-7.402 1.587-9.935 4.147l-0.001 0.001-65.8 62.761c-13.302 12.003-31.011 19.347-50.435 19.347-19.649 0-37.542-7.514-50.964-19.826l0.056 0.050-83.175-79.443c-13.112-12.684-21.252-30.438-21.252-50.093s8.14-37.409 21.232-50.075l0.019-0.019 65.767-62.761c2.067-1.897 3.357-4.61 3.357-7.626 0-1.701-0.411-3.305-1.138-4.721l0.027 0.058c-2.449-4.686-7.275-7.829-12.835-7.829-0.017 0-0.034 0-0.051 0h-92.058c-0.514 0.013-1.119 0.021-1.726 0.021-38.993 0-70.673-31.308-71.275-70.158l-0.001-0.057v-113.202c1.336-38.702 33.032-69.57 71.937-69.57 0.258 0 0.516 0.001 0.773 0.004h92.782c0.007 0 0.016 0 0.025 0 5.577 0 10.366-3.38 12.428-8.203l0.033-0.088c0.568-1.243 0.9-2.695 0.9-4.225 0-3.229-1.475-6.113-3.789-8.015l-0.018-0.014-65.206-62.233c-12.886-12.046-21.090-28.96-21.667-47.793l-0.003-0.104c-0.010-0.449-0.016-0.978-0.016-1.508 0-19.917 8.256-37.905 21.533-50.73l0.020-0.020 83.737-79.971c13.305-11.996 31.013-19.335 50.435-19.335 19.647 0 37.539 7.51 50.964 19.815l-0.056-0.051 65.536 62.596c2.565 2.44 6.044 3.942 9.873 3.942 2.324 0 4.519-0.553 6.461-1.535l-0.082 0.038c4.432-1.64 7.534-5.83 7.534-10.745 0-0.078-0.001-0.156-0.002-0.234v0.012-88.791c0.973-38.535 32.312-69.433 70.928-69.698h118.942c0.282-0.004 0.615-0.006 0.948-0.006 39.158 0 71.023 31.227 72.051 70.138l0.002 0.095v88.493c0.119 5.285 3.669 9.71 8.504 11.144l0.084 0.021c1.59 0.674 3.439 1.066 5.38 1.066 3.882 0 7.398-1.568 9.948-4.106l-0.001 0.001 65.833-62.761c13.305-11.995 31.012-19.334 50.433-19.334 19.663 0 37.57 7.522 50.998 19.846l-0.055-0.050 83.175 79.277c13.075 12.689 21.189 30.427 21.189 50.060s-8.114 37.371-21.171 50.044l-0.017 0.017-65.8 62.761c-2.064 1.891-3.353 4.599-3.353 7.608 0 1.695 0.409 3.295 1.134 4.705l-0.027-0.058c2.562 4.603 7.347 7.696 12.864 7.828h92.145c39.15 0.31 70.97 31.265 72.666 70.040l0.005 0.154v113.466c-2.298 38.502-33.861 68.914-72.626 69.367h-0.044zM779.826 346.393c-4.791-10.438-7.584-22.646-7.584-35.507 0-25.286 10.799-48.050 28.036-63.931l0.061-0.055 59.029-56.353-72.142-68.872-60.614 57.674c-17.081 16.285-40.26 26.306-65.78 26.306-12.663 0-24.75-2.467-35.805-6.947l0.639 0.229c-34.43-13.043-58.495-45.674-58.665-83.947v-80.289h-102.962v80.467c-0.119 38.094-23.943 70.593-57.49 83.529l-0.614 0.208c-10.683 4.346-23.073 6.889-36.052 6.937h-0.019c-0.038 0-0.084 0-0.13 0-25.391 0-48.429-10.077-65.332-26.45l0.025 0.024-60.482-57.74-72.142 68.905 58.665 55.99c17.46 15.99 28.367 38.889 28.367 64.336 0 12.825-2.771 25.003-7.746 35.969l0.222-0.547c-14.716 32.899-47.16 55.408-84.86 55.408-0.534 0-1.067-0.005-1.599-0.014l0.080 0.001h-84.992v96.785h84.497c0.552-0.012 1.203-0.018 1.855-0.018 37.598 0 70.002 22.235 84.781 54.273l0.239 0.579c4.796 10.444 7.593 22.658 7.593 35.526 0 25.259-10.776 48.001-27.981 63.88l-0.059 0.054-59.062 56.584 72.209 68.872 60.416-57.707c17.005-16.333 40.143-26.392 65.631-26.392 12.736 0 24.885 2.511 35.98 7.066l-0.632-0.23c34.404 13 58.449 45.611 58.566 83.854v80.282h103.028v-80.334c0.054-38.025 23.834-70.482 57.327-83.365l0.612-0.207c10.646-4.475 23.021-7.076 36.003-7.076 25.5 0 48.658 10.033 65.739 26.367l-0.036-0.034 60.449 57.74 72.109-68.839-58.698-56.155c-17.457-15.99-28.362-38.887-28.362-64.331 0-12.878 2.794-25.103 7.808-36.104l-0.223 0.545c14.895-32.952 47.477-55.468 85.317-55.468 0.385 0 0.769 0.002 1.153 0.007l-0.058-0.001h84.959v-96.289h-84.331c-0.341 0.004-0.744 0.007-1.147 0.007-37.875 0-70.538-22.32-85.551-54.524l-0.243-0.58zM515.567 629.017v0c-98.759-0.038-178.804-80.106-178.804-178.87 0-98.787 80.083-178.87 178.87-178.87s178.87 80.083 178.87 178.87v0c-0.113 98.776-80.184 178.813-178.963 178.87h-0.006zM515.567 550.763c0.010 0 0.021 0 0.033 0 55.587 0 100.649-45.062 100.649-100.649s-45.062-100.649-100.649-100.649c-55.587 0-100.649 45.062-100.649 100.649 0 0.012 0 0.023 0 0.035v-0.002c0.075 55.52 45.063 100.508 100.576 100.583h0.007z" />
<glyph unicode="&#xe921;" glyph-name="hide" d="M884.064 587.936c-34.144 34.144-75.104 64.864-116.064 85.344l167.264 163.84c6.816 6.816 6.816 17.056 0 23.904s-17.056 6.816-23.904 0l-177.504-170.656c-194.56 92.16-433.504 58.016-597.344-102.4l-136.544-136.544 139.936-139.936c34.144-34.144 71.68-61.44 112.64-85.344l-167.264-163.84c-6.816-6.816-6.816-17.056 0-23.904 3.424-3.424 6.816-6.816 13.664-6.816 3.424 0 10.24 0 10.24 3.424l177.504 170.656c71.68-34.144 150.176-51.2 225.28-51.2 136.544 0 269.664 51.2 372.064 153.6l136.544 136.544-136.544 143.36zM163.84 331.936l-116.064 116.064 112.64 112.64c146.784 146.784 365.216 180.896 546.144 102.4l-47.776-47.776c-40.96 34.144-92.16 58.016-150.176 58.016-122.88 0-225.28-102.4-225.28-225.28 0-54.624 20.48-105.824 51.2-143.36l-58.016-58.016c-37.536 23.904-75.104 51.2-112.64 85.344zM365.216 328.544c-27.296 34.144-40.96 75.104-40.96 119.456 0 105.824 85.344 191.136 191.136 191.136 47.776 0 92.16-17.056 122.88-47.776l-273.056-262.816zM658.784 567.456c27.296-34.144 40.96-75.104 40.96-119.456 0-105.824-85.344-191.136-191.136-191.136-47.776 0-92.16 17.056-122.88 47.776l273.056 262.816zM863.584 331.936c-146.784-146.784-368.64-180.896-549.536-102.4l47.776 47.776c40.96-34.144 92.16-58.016 150.176-58.016 122.88 0 225.28 102.4 225.28 225.28 0 54.624-20.48 105.824-51.2 143.36l58.016 58.016c40.96-23.904 81.92-51.2 116.064-85.344l116.064-116.064-112.64-112.64zM494.944 587.936c-68.256 0-119.456-54.624-119.456-119.456 0-10.24 6.816-17.056 17.056-17.056s17.056 6.816 17.056 17.056c0 47.776 37.536 85.344 85.344 85.344 10.24 0 17.056 6.816 17.056 17.056s-6.816 17.056-17.056 17.056z" />
<glyph unicode="&#xe922;" glyph-name="delete" d="M170.163 726.272h24.704v-685.542c0.058-51.214 41.56-92.716 92.769-92.774h448.748c51.214 0.058 92.716 41.56 92.774 92.769v685.548h24.678c23.286 0 42.163 18.877 42.163 42.163s-18.877 42.163-42.163 42.163h-191.718v107.238c0 0 0 0 0 0 0 23.286-18.877 42.163-42.163 42.163-0.045 0-0.090 0-0.135 0h-215.801c-23.286 0-42.163-18.877-42.163-42.163v0-107.213h-191.693c-23.286 0-42.163-18.877-42.163-42.163s18.877-42.163 42.163-42.163v0zM446.182 875.674h131.584v-65.050h-131.584zM404.019 726.272h340.787v-685.542c0-4.666-3.782-8.448-8.448-8.448v0h-448.768c-4.666 0-8.448 3.782-8.448 8.448v0 685.542zM411.162 145.229c23.286 0 42.163 18.877 42.163 42.163v0 383.718c0 23.286-18.877 42.163-42.163 42.163s-42.163-18.877-42.163-42.163v0-383.718c0-23.286 18.877-42.163 42.163-42.163v0zM612.813 145.229c23.286 0 42.163 18.877 42.163 42.163v0 383.718c0 23.286-18.877 42.163-42.163 42.163s-42.163-18.877-42.163-42.163v0-383.718c0-23.286 18.877-42.163 42.163-42.163v0z" />
<glyph unicode="&#xe923;" glyph-name="down-arrow" d="M17.715 737.587c-10.771-10.752-17.434-25.615-17.434-42.035s6.663-31.284 17.433-42.034l462.439-461.927c10.752-10.771 25.615-17.434 42.035-17.434s31.284 6.663 42.034 17.433l0.001 0.001 462.746 462.234c10.758 10.758 17.412 25.619 17.412 42.035 0 32.832-26.615 59.447-59.447 59.447-16.416 0-31.277-6.654-42.035-17.412v0l-420.659-419.84-419.84 419.84c-10.772 10.894-25.718 17.64-42.24 17.64s-31.468-6.746-42.235-17.635l-0.005-0.006z" />
<glyph unicode="&#xe924;" glyph-name="stock" d="M924.388 310.3v564.366h-318.18v-188.046h-104.562v-229.945h-26.709v219.42h-359.936v-219.506h-115.001v-422.684h1028.892v276.395zM161.422 603.051v26.681h267.15v-26.596zM428.572 556.487v-99.897h-267.15v99.897zM313.543 410.14v-131.243h-78.933v131.214zM360.050 232.476v177.636h141.596v-329.785h-455.111v329.785h141.71v-177.636zM788.537 451.954v188.132h89.429v-329.785h-209.010v-229.973h-120.69v559.758h89.401v-188.132zM877.881 828.245v-141.625h-225.195v141.71zM742.002 640.114v-141.71h-57.97v141.71zM715.264 80.356v183.495h267.093v-183.495zM316.132 531.371h61.838v-50.148h-61.838v50.148zM762.567 177.522h178.688v-50.119h-178.688v50.119zM785.067 746.126h61.838v-50.148h-61.838v50.148z" />
<glyph unicode="&#xe925;" glyph-name="edit" horiz-adv-x="1026" d="M801.492-64h-690.529c-61.186 0.194-110.735 49.743-110.929 110.911v641.287c0.194 61.186 49.743 110.735 110.911 110.929h218.526c20.466 0 37.056-16.591 37.056-37.056s-16.591-37.056-37.056-37.056h-218.542c-20.302-0.077-36.739-16.515-36.817-36.809v-641.276c0.077-20.302 16.515-36.739 36.809-36.817h690.536c20.27 0.058 36.68 16.504 36.68 36.782 0 0.012 0 0.024 0 0.036v-0.002 218.235c0 20.466 16.591 37.056 37.056 37.056s37.056-16.591 37.056-37.056v0-218.508c-0.078-61.118-49.632-110.636-110.756-110.656h-0.002zM1014.599 803.264l-145.421 145.797c-6.725 6.761-16.035 10.945-26.322 10.945s-19.597-4.184-26.321-10.943l-494.551-494.687c-4.348-4.293-7.609-9.678-9.338-15.71l-0.062-0.254-58.798-203.193c-0.904-3.052-1.424-6.559-1.424-10.187 0-20.522 16.637-37.159 37.159-37.159 0.020 0 0.040 0 0.059 0h-0.003c3.491 0.026 6.853 0.537 10.036 1.466l-0.259-0.065 205.108 56.37c6.45 1.794 11.971 5.146 16.332 9.632l0.008 0.008 494.173 495.677c6.58 6.674 10.644 15.844 10.644 25.963 0 10.306-4.215 19.628-11.016 26.335l-0.004 0.004zM343.487 278.188l26.493 91.751 66.797-66.010zM494.309 333.738l-94.555 93.597 351.931 351.862 93.803-92.914zM889.142 730.108l-93.7 92.914 47.346 47.414 93.187-93.29z" />
<glyph unicode="&#xe926;" glyph-name="envelope" d="M1000.55 827.46c-16.030 16.579-38.471 26.872-63.316 26.872-0.444 0-0.888-0.003-1.331-0.010l0.067 0.001h-841.114c-0.376 0.006-0.819 0.009-1.264 0.009-24.845 0-47.287-10.293-63.293-26.847l-0.024-0.025c-16.582-16.030-26.876-38.473-26.876-63.321 0-0.539 0.005-1.077 0.014-1.613l-0.001 0.081v-621.568c-0.005-0.36-0.008-0.785-0.008-1.211 0-24.841 10.293-47.277 26.846-63.277l0.025-0.024c16.024-16.579 38.461-26.872 63.302-26.872 0.449 0 0.898 0.003 1.346 0.010l-0.068-0.001h841.148c50.402 0.174 91.216 40.976 91.409 91.356v621.586c0.009 0.456 0.013 0.994 0.013 1.533 0 24.848-10.295 47.291-26.851 63.297l-0.025 0.024zM954.266 141.039c-0.152-10.036-8.257-18.129-18.283-18.261h-841.161c-10.046 0.114-18.162 8.218-18.295 18.249v438.865c12.128-13.559 25.013-25.849 38.808-37.062l0.616-0.485q153.156-117.726 243.439-193.126 29.15-24.576 47.445-38.298c14.274-10.289 30.522-19.565 47.726-27.057l1.699-0.659c17.118-8.386 37.191-13.496 58.405-13.992l0.168-0.003h1.126c21.382 0.497 41.455 5.607 59.42 14.368l-0.848-0.373c18.903 8.148 35.151 17.424 50.208 28.252l-0.783-0.536q18.295 13.653 47.445 38.298 90.283 75.435 243.439 193.126c14.416 11.692 27.301 23.982 39.142 37.225l0.282 0.321v-438.852zM954.266 747.895v-6.281c-1.666-28.357-11.369-54.16-26.842-75.508l0.286 0.415c-15.87-25.552-34.887-47.35-56.88-65.699l-0.43-0.349q-110.285-86.869-229.171-181.146l-20.002-16.862q-16.555-14.029-26.283-21.436t-25.429-17.988c-8.316-5.844-17.804-11.107-27.839-15.327l-1.004-0.375c-7.251-3.077-15.672-4.942-24.507-5.119l-0.069-0.001h-1.126c-8.904 0.178-17.325 2.043-25.022 5.287l0.446-0.167c-11.038 4.592-20.526 9.855-29.332 16.026l0.489-0.325q-15.701 10.581-25.429 17.988t-26.283 21.436l-20.002 16.862q-118.989 94.31-229.41 181.146c-50.846 36.582-83.629 95.504-83.865 162.096v0.038c0.133 10.050 8.245 18.163 18.283 18.295h841.161c1.564-1.082 3.501-1.729 5.589-1.729 0.852 0 1.678 0.108 2.467 0.31l-0.069-0.015c2.287 0.785 3.994-0.649 5.12-4.267s2.185-5.325 3.14-5.154 1.536-2.185 1.707-7.134 0.273-7.441 0.273-7.441v-7.714z" />
<glyph unicode="&#xe927;" glyph-name="error" d="M1010.347 146.159l-411.273 712.363c-17.72 30.226-50.047 50.201-87.040 50.201s-69.32-19.975-86.783-49.728l-0.257-0.473-411.341-712.363c-8.47-14.423-13.472-31.766-13.472-50.278 0-55.532 45.015-100.551 100.546-100.557h822.614c55.502 0.045 100.478 45.048 100.478 100.557 0 18.512-5.002 35.856-13.729 50.753l0.257-0.475zM512 111.206c-36.157 0-65.468 29.311-65.468 65.468s29.311 65.468 65.468 65.468c36.157 0 65.468-29.311 65.468-65.468v0c-0.039-36.141-29.327-65.429-65.464-65.468h-0.004zM577.911 391.1c0.011-0.447 0.017-0.972 0.017-1.5 0-36.402-29.51-65.911-65.911-65.911s-65.911 29.51-65.911 65.911c0 0.527 0.006 1.053 0.019 1.578l-0.001-0.078v302.353c0 17.249 13.983 31.232 31.232 31.232v0h69.359c0.010 0 0.022 0 0.034 0 17.23 0 31.198-13.968 31.198-31.198 0-0.012 0-0.024 0-0.036v0.002-302.455z" />
<glyph unicode="&#xe928;" glyph-name="up-arrow" d="M560.299 717.244l438.409-438.409c12.924-12.924 20.918-30.779 20.918-50.5 0-39.443-31.975-71.418-71.418-71.418-19.722 0-37.576 7.994-50.5 20.918v0l-387.925 387.959-387.891-387.959c-12.896-12.771-30.646-20.662-50.239-20.662-39.437 0-71.407 31.97-71.407 71.407 0 19.601 7.898 37.358 20.684 50.261l438.438 438.438c12.921 12.917 30.769 20.905 50.483 20.905s37.562-7.989 50.483-20.906v0z" />
<glyph unicode="&#xe929;" glyph-name="filter-results" d="M388.581 105.283h222.046v110.969h-222.046zM0 771.368v-111.023h999.155v111.023zM166.535 382.787h666.085v111.023h-666.085z" />
<glyph unicode="&#xe92a;" glyph-name="active" horiz-adv-x="1021" d="M980.124 647.346c-26.926 63.325-63.587 117.447-108.719 163.189l0.057-0.058c-45.495 45.308-99.526 82.086-159.463 107.707l-3.325 1.264c-58.504 25.626-126.687 40.538-198.352 40.538s-139.848-14.912-201.614-41.803l3.262 1.265c-63.262-26.887-117.292-63.665-162.806-108.989l0.018 0.018c-45.034-45.691-81.661-99.811-107.279-159.76l-1.281-3.371c-25.623-58.764-40.531-127.229-40.531-199.175s14.908-140.411 41.804-202.473l-1.273 3.299c26.872-63.464 63.541-117.706 108.722-163.534l-0.059 0.060c45.465-45.304 99.461-82.081 159.364-107.708l3.322-1.263c58.502-25.635 126.685-40.553 198.352-40.553s139.85 14.918 201.613 41.818l-3.26-1.265c63.264 26.881 117.295 63.66 162.805 108.988l-0.017-0.017c45.124 45.766 81.794 100.008 107.387 160.102l1.276 3.372c25.619 58.764 40.525 127.229 40.525 199.175s-14.906 140.41-41.798 202.473l1.272-3.298zM208.002 249.682c-37.072 56.139-59.142 125.019-59.142 199.054 0 66.883 18.011 129.559 49.448 183.443l-0.933-1.732c32.009 55.233 76.533 99.978 129.876 131.331l1.684 0.915c51.147 30.468 112.786 48.48 178.633 48.48 0.937 0 1.874-0.004 2.809-0.011l-0.143 0.001c0.906 0.008 1.977 0.013 3.048 0.013 73.311 0 141.341-22.614 197.493-61.247l-1.178 0.766zM843.25 307.133c-18.942-45.058-44.962-83.554-77.087-115.993l0.029 0.029c-32.325-32.050-70.609-58.151-113.034-76.485l-2.381-0.916c-41.045-18.264-88.935-28.899-139.309-28.899-0.433 0-0.866 0.001-1.299 0.002h0.067c-0.231-0.001-0.503-0.001-0.776-0.001-73.209 0-141.245 22.148-197.773 60.11l1.276-0.807 501.048 500.465c36.226-54.487 57.803-121.43 57.803-193.412 0-0.923-0.004-1.846-0.011-2.768l0.001 0.142c0.001-0.34 0.002-0.742 0.002-1.144 0-50.691-10.516-98.926-29.486-142.642l0.896 2.319z" />
<glyph unicode="&#xe92b;" glyph-name="gird" d="M353.553 960h-235.145c-65.364-0.078-118.331-53.045-118.409-118.401v-235.186c0.078-65.364 53.045-118.331 118.401-118.409h235.152c65.364 0.078 118.331 53.045 118.409 118.401v235.186c-0.078 65.364-53.045 118.331-118.401 118.409h-0.007zM391.953 606.413c-0.039-21.192-17.208-38.361-38.396-38.4h-235.149c-21.192 0.039-38.361 17.208-38.4 38.396v235.183c0.039 21.192 17.208 38.361 38.396 38.4h235.149c21.192-0.039 38.361-17.208 38.4-38.396v-0.004zM903.953 960h-232.107c-66.191-0.155-119.799-53.811-119.876-120.005v-232.114c0.078-66.238 53.743-119.916 119.969-120.013h232.116c66.243 0.078 119.92 53.767 119.979 120.007v232.113c-0.058 66.282-53.794 119.993-120.079 120.013h-0.002zM943.957 607.983c-0.019-22.086-17.918-39.985-40.002-40.004h-232.109c-22.086 0.019-39.985 17.918-40.004 40.002v232.109c0.019 22.086 17.918 39.985 40.002 40.004h232.109c22.086-0.019 39.985-17.918 40.004-40.002v-0.002zM353.553 407.996h-235.145c-65.364-0.078-118.331-53.045-118.409-118.401v-235.186c0.078-65.364 53.045-118.331 118.401-118.409h235.152c65.364 0.078 118.331 53.045 118.409 118.401v235.186c-0.078 65.364-53.045 118.331-118.401 118.409h-0.007zM391.953 54.409c-0.039-21.192-17.208-38.361-38.396-38.4h-235.149c-21.192 0.039-38.361 17.208-38.4 38.396v235.183c0.039 21.192 17.208 38.361 38.396 38.4h235.149c21.192-0.039 38.361-17.208 38.4-38.396v-0.004zM903.953 407.996h-232.107c-66.199-0.136-119.818-53.803-119.876-120.007v-232.113c0.078-66.238 53.743-119.916 119.969-120.013h232.116c66.235 0.097 119.901 53.775 119.979 120.005v232.115c-0.058 66.282-53.794 119.993-120.079 120.013h-0.002zM943.957 55.979c-0.019-22.086-17.918-39.985-40.002-40.004h-232.109c-22.086 0.019-39.985 17.918-40.004 40.002v232.109c0.019 22.086 17.918 39.985 40.002 40.004h232.109c22.086-0.019 39.985-17.918 40.004-40.002v-0.002z" />
<glyph unicode="&#xe92c;" glyph-name="haircut" d="M358.4 243.337c-46.251 0-85.333-54.613-85.333-119.467s39.083-119.467 85.333-119.467 85.333 54.613 85.333 119.467-39.083 119.467-85.333 119.467zM358.4 38.537c-23.689 0-51.2 37.274-51.2 85.333s27.511 85.333 51.2 85.333 51.2-37.547 51.2-85.333-27.511-85.333-51.2-85.333zM733.867 311.467c-1.946 0-3.857-0.273-5.769-0.341l-106.359 167.595 195.345 353.553c1.347 2.385 2.14 5.237 2.14 8.275 0 0.983-0.083 1.947-0.243 2.885l0.014-0.101-17.067 102.4c-1.379 8.159-8.393 14.296-16.84 14.296-6.043 0-11.352-3.141-14.385-7.879l-0.041-0.068-224.529-353.894-224.495 353.894c-3.074 4.806-8.383 7.947-14.426 7.947-8.447 0-15.461-6.137-16.826-14.195l-0.014-0.101-17.067-102.4c-0.146-0.837-0.229-1.801-0.229-2.785 0-3.037 0.793-5.889 2.184-8.36l-0.044 0.086 195.345-353.553-106.359-167.595c-1.946 0-3.823 0.341-5.803 0.341-84.685 0-153.6-84.207-153.6-187.733 0-4.779 0.307-9.489 0.58-14.199-0.253-0.819-0.457-1.791-0.573-2.79l-0.007-0.078c0.043-0.764 0.067-1.659 0.067-2.559 0-26.901-21.807-48.708-48.708-48.708-0.9 0-1.795 0.024-2.683 0.073l0.124-0.005c-9.426 0-17.067-7.641-17.067-17.067s7.641-17.067 17.067-17.067v0c1.241-0.069 2.693-0.108 4.154-0.108 23.885 0 45.329 10.448 60.012 27.023l0.073 0.084c18.601-62.571 73.739-108.168 140.114-112.31l0.447-0.022c84.685 0 153.6 84.207 153.6 187.733 0.004 0.483 0.006 1.054 0.006 1.625 0 38.632-10.128 74.899-27.873 106.291l0.561-1.078 61.44 111.616 61.44-111.445c-17.186-30.314-27.314-66.582-27.314-105.215 0-0.63 0.003-1.26 0.008-1.89l-0.001 0.096c0-103.526 68.915-187.733 153.6-187.733s153.6 84.241 153.6 187.733-68.881 187.733-153.6 187.733zM307.951 843.571l8.738 52.531 209.237-329.933-34.543-54.613zM358.4-29.867c-65.877 0-119.467 68.915-119.467 153.6s53.589 153.6 119.467 153.6 119.467-68.881 119.467-153.6-53.589-153.6-119.467-153.6zM400.247 304.196l375.467 591.872 8.738-52.531-321.877-582.212c-16.476 19.044-37.451 33.757-61.296 42.539l-1.032 0.333zM565.658 377.31l37.274 67.447 89.122-140.561c-24.876-9.114-45.852-23.828-62.169-42.684l-0.159-0.188zM733.867-29.867c-65.877 0-119.467 68.915-119.467 153.6s53.589 153.6 119.467 153.6 119.467-68.881 119.467-153.6-53.589-153.6-119.467-153.6zM733.867 243.337c-46.251 0-85.333-54.613-85.333-119.467s39.083-119.467 85.333-119.467 85.333 54.613 85.333 119.467-39.083 119.467-85.333 119.467zM733.867 38.537c-23.689 0-51.2 37.274-51.2 85.333s27.511 85.333 51.2 85.333 51.2-37.274 51.2-85.333-27.511-85.333-51.2-85.333zM546.133 499.337c-9.426 0-17.067-7.641-17.067-17.067v0-17.067c0-9.426 7.641-17.067 17.067-17.067s17.067 7.641 17.067 17.067v0 17.067c0 9.426-7.641 17.067-17.067 17.067v0z" />
<glyph unicode="&#xe92d;" glyph-name="tick" d="M1009.004 809.008c-19.994 19.996-52.41 19.996-72.408 0l-613.408-613.414-235.784 235.784c-19.994 19.996-52.41 19.994-72.408 0-19.996-19.994-19.996-52.41 0-72.406l271.988-271.984c19.988-19.994 52.428-19.98 72.408 0l649.612 649.612c19.996 19.994 19.994 52.412 0 72.408z" />
<glyph unicode="&#xe92e;" glyph-name="calder-left" d="M336.717 442.635l227.095-227.095c6.694-6.694 15.941-10.834 26.154-10.834 20.428 0 36.988 16.56 36.988 36.988 0 10.214-4.14 19.461-10.834 26.154v0l-200.94 201.043 200.769 200.803c5.857 6.516 9.439 15.18 9.439 24.68 0 20.427-16.559 36.986-36.986 36.986-9.458 0-18.086-3.55-24.626-9.389l0.036 0.032-227.095-227.060c-6.694-6.693-10.834-15.94-10.834-26.154s4.14-19.461 10.834-26.154v0zM511.983 960c-282.745-0.019-511.949-229.234-511.949-511.983 0-282.76 229.223-511.983 511.983-511.983s511.983 229.223 511.983 511.983v0c-0.331 282.639-229.375 511.671-511.987 511.983h-0.030zM511.983 23.787c-234.296 0-424.23 189.934-424.23 424.23s189.934 424.23 424.23 424.23c234.296 0 424.23-189.934 424.23-424.23v0c-0.273-234.186-190.044-423.957-424.204-424.23h-0.026z" />
<glyph unicode="&#xe92f;" glyph-name="calder-righ1" d="M687.283 453.365l-227.095 227.095c-6.694 6.694-15.941 10.834-26.154 10.834-20.428 0-36.988-16.56-36.988-36.988 0-10.214 4.14-19.461 10.834-26.154v0l200.94-201.043-200.769-200.803c-5.857-6.516-9.439-15.18-9.439-24.68 0-20.427 16.559-36.986 36.986-36.986 9.458 0 18.086 3.55 24.626 9.389l-0.036-0.032 227.095 227.060c6.694 6.693 10.834 15.94 10.834 26.154s-4.14 19.461-10.834 26.154v0zM512.017-64c282.745 0.019 511.949 229.234 511.949 511.983 0 282.76-229.223 511.983-511.983 511.983s-511.983-229.223-511.983-511.983v0c0.331-282.639 229.375-511.671 511.987-511.983h0.030zM512.017 872.213c234.296 0 424.23-189.934 424.23-424.23s-189.934-424.23-424.23-424.23c-234.296 0-424.23 189.934-424.23 424.23v0c0.273 234.186 190.044 423.957 424.204 424.23h0.026z" />
<glyph unicode="&#xe930;" glyph-name="chat" d="M348.437 397.187h-45.305c-8.329-0.618-15.723-4.19-21.229-9.661l-115.904-115.987v95.315c-1.707 17.043-15.887 30.263-33.193 30.443h-0.018l-65.923-0.747-0.72 400.163 667.178 0.692v-153.766c0-18.403 14.919-33.322 33.322-33.322s33.322 14.919 33.322 33.322v0 153.794c-0.126 36.341-29.576 65.762-65.916 65.84h-668.182c-36.327-0.125-65.743-29.541-65.868-65.856v-400.866c0.125-36.327 29.541-65.743 65.856-65.868h33.555v-139.43c0-18.342 14.869-33.211 33.211-33.211v0c9.147 0.017 17.428 3.713 23.443 9.688l162.98 162.98h29.226c18.403 0 33.322 14.919 33.322 33.322s-14.919 33.322-33.322 33.322v0zM949.746 575.751h-467.719c-36.34-0.094-65.774-29.528-65.868-65.859v-273.445c0.094-36.35 29.544-65.79 65.888-65.868h288.72l115.767-115.823c6.006-5.986 14.292-9.687 23.443-9.687 0.019 0 0.038 0 0.057 0h-0.003c0.234-0.006 0.51-0.010 0.787-0.010 8.993 0 17.1 3.796 22.805 9.873l0.016 0.017c5.985 5.981 9.687 14.245 9.687 23.374 0 0.014 0 0.028 0 0.042v-0.002 92.105h6.365c36.327 0.125 65.743 29.541 65.868 65.856v273.448c-0.031 36.368-29.458 65.853-65.801 65.979h-0.012zM949.027 509.883v-272.744h-38.995c-17.681-0.146-32.092-13.949-33.206-31.369l-0.005-0.098v-47.049l-70.296 70.186c-5.812 5.145-13.497 8.29-21.917 8.303h-0.003l-301.831-0.72-0.692 272.716zM715.859 339.816c18.342 0 33.211 14.869 33.211 33.211s-14.869 33.211-33.211 33.211c-18.342 0-33.211-14.869-33.211-33.211v0c0.078-18.31 14.901-33.133 33.203-33.211h0.007zM186.174 707.792v0c-0.066 0-0.143 0.001-0.221 0.001-18.342 0-33.211-14.869-33.211-33.211 0-9.233 3.768-17.586 9.85-23.605l0.003-0.003c6.017-6.052 14.348-9.797 23.554-9.797 0.038 0 0.077 0 0.115 0h427.666c18.395 0 33.308 14.912 33.308 33.308s-14.912 33.308-33.308 33.308v0zM348.547 552.448h-162.456c-18.395 0-33.308-14.912-33.308-33.308s14.912-33.308 33.308-33.308v0h162.318c18.395 0 33.308 14.912 33.308 33.308s-14.912 33.308-33.308 33.308v0zM606.678 339.816c18.342 0 33.211 14.869 33.211 33.211s-14.869 33.211-33.211 33.211c-18.342 0-33.211-14.869-33.211-33.211v0c0.078-18.31 14.901-33.133 33.203-33.211h0.007zM824.984 339.816c18.342 0 33.211 14.869 33.211 33.211s-14.869 33.211-33.211 33.211c-18.342 0-33.211-14.869-33.211-33.211v0c0-18.342 14.869-33.211 33.211-33.211v0z" />
<glyph unicode="&#xe931;" glyph-name="cir-cross" d="M768.010 704.002c-141.385 141.366-370.599 141.36-511.975-0.017-141.383-141.383-141.383-370.61 0-511.993s370.61-141.383 511.993 0v0c141.156 141.488 141.15 370.53-0.002 511.995l-0.015 0.015zM299.894 235.887c-117.15 117.15-117.15 307.088 0 424.238s307.088 117.15 424.238 0c117.15-117.15 117.15-307.088 0-424.238v0c-117.232-116.959-307.006-116.959-424.225-0.013l-0.013 0.013zM640.746 587.387c-5.161 5.172-12.296 8.372-20.179 8.372s-15.018-3.2-20.178-8.371l-88.352-88.401-88.4 88.4c-5.134 5.017-12.164 8.113-19.918 8.113-15.743 0-28.505-12.762-28.505-28.505 0-7.754 3.096-14.784 8.118-19.923l88.395-88.395-88.4-88.351c-5.301-5.181-8.588-12.403-8.588-20.392 0-15.743 12.762-28.505 28.505-28.505 7.989 0 15.211 3.287 20.387 8.582l88.405 88.332 88.351-88.4c5.165-5.162 12.299-8.355 20.179-8.355 15.765 0 28.546 12.78 28.546 28.546 0 7.886-3.198 15.025-8.367 20.191l-88.4 88.351 88.4 88.4c5.158 5.158 8.348 12.284 8.348 20.155s-3.19 14.996-8.348 20.155v0z" />
<glyph unicode="&#xe932;" glyph-name="list" d="M972.937 83.285h-684.749c-26.849 1.753-47.963 23.959-47.963 51.098s21.114 49.345 47.811 51.090l0.152 0.008h684.715c26.849-1.753 47.963-23.959 47.963-51.098s-21.114-49.345-47.811-51.090l-0.152-0.008zM972.937 404.036h-684.749c-26.849 1.753-47.963 23.959-47.963 51.098s21.114 49.345 47.811 51.090l0.152 0.008h684.715c26.849-1.753 47.963-23.959 47.963-51.098s-21.114-49.345-47.811-51.090l-0.152-0.008zM972.937 724.753h-684.749c-26.849 1.753-47.963 23.959-47.963 51.098s21.114 49.345 47.811 51.090l0.152 0.008h684.715c26.849-1.753 47.963-23.959 47.963-51.098s-21.114-49.345-47.811-51.090l-0.152-0.008zM137.216 771.925c0-37.891-30.717-68.608-68.608-68.608s-68.608 30.717-68.608 68.608c0 37.891 30.717 68.608 68.608 68.608s68.608-30.717 68.608-68.608zM137.216 455.134c0-37.891-30.717-68.608-68.608-68.608s-68.608 30.717-68.608 68.608c0 37.891 30.717 68.608 68.608 68.608s68.608-30.717 68.608-68.608zM137.216 138.342c0-37.891-30.717-68.608-68.608-68.608s-68.608 30.717-68.608 68.608c0 37.891 30.717 68.608 68.608 68.608s68.608-30.717 68.608-68.608z" />
<glyph unicode="&#xe933;" glyph-name="minus" d="M932.557 533.333h-841.114c-48.694-2.735-87.145-42.889-87.145-92.023s38.451-89.288 86.904-92.013l0.241-0.011h841.114c48.694 2.735 87.145 42.889 87.145 92.023s-38.451 89.288-86.904 92.013l-0.241 0.011z" />
<glyph unicode="&#xe934;" glyph-name="cir-plus" d="M511.983 960c-282.745-0.019-511.949-229.234-511.949-511.983 0-282.76 229.223-511.983 511.983-511.983s511.983 229.223 511.983 511.983v0c-0.331 282.639-229.375 511.671-511.987 511.983h-0.030zM511.983 23.787c-234.296 0-424.23 189.934-424.23 424.23s189.934 424.23 424.23 424.23c234.296 0 424.23-189.934 424.23-424.23v0c-0.273-234.186-190.044-423.957-424.204-424.23h-0.026zM501.335 716.125c-10.333 0.011-20.668-3.924-28.55-11.807s-11.818-18.218-11.807-28.549v-0.001l0.048-176.747h-176.796c-10.151-0.116-20.277-4.051-28.030-11.804-15.743-15.743-15.743-41.266 0-57.009 7.753-7.753 17.879-11.688 28.041-11.804h176.785l-0.048-176.747c-0.12-10.481 3.815-20.99 11.804-28.979 15.743-15.743 41.266-15.743 57.009 0 7.989 7.989 11.924 18.498 11.804 28.968v0.011l0.073 176.723 176.747-0.048c10.327 0.003 20.654 3.944 28.533 11.824 15.765 15.765 15.765 41.326 0 57.091-7.886 7.886-18.222 11.827-28.557 11.824l-176.748-0.048v176.796c-0.001 10.316-3.936 20.631-11.807 28.502s-18.186 11.806-28.502 11.807v0z" />
<glyph unicode="&#xe935;" glyph-name="money-bag" d="M391.68 167.219c-16.563 0.019-29.984 13.441-30.003 30.001v0.002c0 16.57-13.433 30.003-30.003 30.003s-30.003-13.433-30.003-30.003v0c0.049-39.052 24.922-72.282 59.685-84.761l0.629-0.197v-26.249c0-16.57 13.433-30.003 30.003-30.003s30.003 13.433 30.003 30.003v0 26.487c35.047 12.842 59.605 45.913 59.605 84.719 0 49.678-40.245 89.956-89.911 90.010h-0.005c-16.57 0-30.003 13.433-30.003 30.003s13.433 30.003 30.003 30.003c16.57 0 30.003-13.433 30.003-30.003v0c0-16.57 13.433-30.003 30.003-30.003s30.003 13.433 30.003 30.003v0c-0.052 38.807-24.617 71.862-59.040 84.518l-0.625 0.201v44.066c0 16.57-13.433 30.003-30.003 30.003s-30.003-13.433-30.003-30.003v0-43.827c-35.402-12.653-60.279-45.9-60.279-84.958 0-49.699 40.279-89.99 89.973-90.010h0.002c16.57 0 30.003-13.433 30.003-30.003s-13.433-30.003-30.003-30.003v0zM122.266-15.019c62.43-33.417 148.139-48.981 269.653-48.981 7.776-0.327 16.901-0.513 26.068-0.513 73.336 0 143.888 11.916 209.827 33.917l-4.676-1.353c16.59-19.654 41.24-32.051 68.787-32.051 0.021 0 0.042 0 0.064 0h242.002c0.020 0 0.044 0 0.067 0 49.673 0 89.941 40.268 89.941 89.941 0 23.13-8.731 44.221-23.077 60.156l0.072-0.081c14.272 15.83 23.002 36.899 23.002 60.006s-8.731 44.176-23.073 60.086l0.071-0.080c14.272 15.83 23.002 36.899 23.002 60.006s-8.731 44.176-23.073 60.086l0.071-0.080c14.274 15.854 23.005 36.945 23.005 60.075 0 49.673-40.268 89.941-89.941 89.941-0.024 0-0.047 0-0.071 0h-242.002c-2.935 0-5.803 0-8.67-0.444-29.357 35.591-63.804 65.648-102.5 89.469l-1.778 1.018c14.251 15.844 22.967 36.914 22.967 60.020 0 35.703-20.811 66.546-50.964 81.058l-0.539 0.234 50.005 153.361c0.941 2.782 1.484 5.987 1.484 9.318 0 16.57-13.433 30.003-30.003 30.003-0.006 0-0.011 0-0.017 0h-95.129c-12.776 35.171-45.909 59.841-84.803 59.841-38.933 0-72.092-24.718-84.641-59.317l-0.199-0.627h-95.198c-0.005 0-0.010 0-0.016 0-16.57 0-30.003-13.433-30.003-30.003 0-3.331 0.543-6.536 1.545-9.53l-0.061 0.212 50.005-153.259c-30.768-14.719-51.642-45.601-51.642-81.358 0-23.107 8.717-44.179 23.043-60.105l-0.073 0.082c-122.239-75.596-202.92-208.191-204.797-359.765l-0.003-0.274c-0.385-5.001-0.604-10.83-0.604-16.711 0-88.062 49.216-164.629 121.642-203.697l1.228-0.606zM963.994 266.001c-0.019-16.563-13.441-29.984-30.001-30.003h-242.007c-16.57 0-30.003 13.433-30.003 30.003s13.433 30.003 30.003 30.003h242.005c16.563-0.019 29.984-13.441 30.003-30.001v-0.002zM963.994 145.988c-0.019-16.563-13.441-29.984-30.001-30.003h-242.007c-16.57 0-30.003 13.433-30.003 30.003s13.433 30.003 30.003 30.003h242.005c16.563-0.019 29.984-13.441 30.003-30.001v-0.002zM933.99-4.028h-242.005c-16.57 0-30.003 13.433-30.003 30.003s13.433 30.003 30.003 30.003h242.005c16.57 0 30.003-13.433 30.003-30.003s-13.433-30.003-30.003-30.003v0zM963.994 385.98c-0.019-16.563-13.441-29.984-30.001-30.003h-242.007c-16.57 0-30.003 13.433-30.003 30.003s13.433 30.003 30.003 30.003h242.005c16.563-0.019 29.984-13.441 30.003-30.001v-0.002zM511.113 596.002h-239.138c-16.57 0-30.003 13.433-30.003 30.003s13.433 30.003 30.003 30.003v0h240.026c16.57 0 30.003-13.433 30.003-30.003s-13.433-30.003-30.003-30.003h-0.853zM331.981 839.987c16.57 0 30.003 13.433 30.003 30.003v0c0 16.57 13.433 30.003 30.003 30.003s30.003-13.433 30.003-30.003v-60.006c0-16.57 13.433-30.003 30.003-30.003s30.003 13.433 30.003 30.003v30.003h48.674l-40.448-124.006h-196.471l-40.414 124.006zM277.845 535.996h228.181c47.931-20.68 88.438-50.301 121.074-87.066l0.304-0.349c-15.707-16.149-25.393-38.226-25.393-62.565 0-23.108 8.731-44.178 23.075-60.088l-0.071 0.080c-14.272-15.83-23.002-36.899-23.002-60.006s8.731-44.176 23.073-60.086l-0.071 0.080c-14.272-15.83-23.002-36.899-23.002-60.006s8.731-44.176 23.073-60.086l-0.071 0.080c-14.273-15.812-23.006-36.865-23.006-59.958 0-0.017 0-0.034 0-0.051v0.003c0-0.614 0-1.229 0-1.843-55.082-18.205-118.487-28.705-184.344-28.705-9.043 0-18.040 0.198-26.987 0.59l1.275-0.044c-111.309 0-188.041 13.312-241.391 41.882-61.815 33.109-90.59 86.494-90.59 168.107 1.395 146.841 89.525 272.761 215.564 329.113l2.309 0.922z" />
<glyph unicode="&#xe936;" glyph-name="cross" d="M992.776 928.776c-19.264 19.288-45.89 31.219-75.303 31.219s-56.038-11.931-75.302-31.218l-329.974-330.22-329.973 330.219c-19.272 19.272-45.895 31.191-75.303 31.191-58.815 0-106.494-47.679-106.494-106.494 0-29.408 11.92-56.031 31.191-75.303l329.973-329.973-329.973-330.219c-19.272-19.272-31.191-45.895-31.191-75.303 0-58.815 47.679-106.494 106.494-106.494 29.408 0 56.031 11.92 75.303 31.191v0l329.973 329.973 329.973-329.973c19.272-19.272 45.895-31.191 75.303-31.191 58.815 0 106.494 47.679 106.494 106.494 0 29.408-11.92 56.031-31.191 75.303l-329.973 329.973 329.973 329.973c19.349 19.282 31.322 45.956 31.322 75.426s-11.972 56.144-31.319 75.423l-0.003 0.003z" />
<glyph unicode="&#xe937;" glyph-name="package" d="M993.724 695.023l-200.977 254.737c-4.775 6.179-12.155 10.145-20.465 10.24h-528.092c-8.325-0.095-15.705-4.061-20.435-10.18l-0.045-0.060-200.943-254.737c-3.55-4.367-5.7-9.997-5.7-16.129 0-0.030 0-0.059 0-0.089v0.005-716.493c0.039-14.519 11.798-26.278 26.313-26.317h929.523c14.519 0.039 26.278 11.798 26.317 26.313v716.497c0.009 0.243 0.014 0.53 0.014 0.817 0 5.864-2.080 11.243-5.542 15.438l0.033-0.041zM922.283 700.587h-387.721v206.814h224.87zM257.058 907.401h224.87v-206.814h-387.721zM69.666-11.401v659.524h876.919v-659.524zM632.934 436.395l-176.23-176.23-73.216 73.216c-4.77 4.77-11.359 7.72-18.637 7.72-14.556 0-26.356-11.8-26.356-26.356 0-7.278 2.95-13.867 7.72-18.637l91.819-91.819c4.77-4.746 11.347-7.68 18.609-7.68 0.010 0 0.020 0 0.029 0h-0.002c7.265 0.036 13.84 2.96 18.64 7.684l194.556 194.556c4.779 4.765 7.736 11.356 7.736 18.637s-2.957 13.872-7.735 18.636l-0.001 0.001c-4.71 4.867-11.302 7.888-18.6 7.888-7.163 0-13.646-2.911-18.331-7.614l-0.001-0.001z" />
<glyph unicode="&#xe938;" glyph-name="profile" d="M681.404 462.609c66.091 51.255 108.22 130.678 108.22 219.94 0 153.318-124.289 277.606-277.606 277.606s-277.606-124.289-277.606-277.606c0-89.262 42.129-168.685 107.588-219.468l0.632-0.471c-201.242-72.044-342.63-261.098-342.63-483.175 0-0.078 0-0.155 0-0.233v0.011c0-23.866 19.347-43.213 43.213-43.213v0h937.574c23.866 0 43.213 19.347 43.213 43.213v0c0 0.069 0 0.151 0 0.233 0 222.064-141.372 411.109-339.024 482.044l-3.572 1.119zM320.853 682.394c0 105.567 85.579 191.147 191.147 191.147s191.147-85.579 191.147-191.147c0-105.567-85.579-191.147-191.147-191.147v0c-105.505 0.155-190.991 85.642-191.147 191.132v0.015zM88.747 22.426c22.673 215.712 203.577 382.374 423.407 382.374s400.733-166.663 423.249-380.527l0.158-1.848z" />
<glyph unicode="&#xe939;" glyph-name="down-arrow1" d="M560.299 177.801l438.443 438.443c12.354 12.818 19.964 30.282 19.964 49.523 0 39.437-31.97 71.407-71.407 71.407-19.241 0-36.705-7.61-49.545-19.985l0.022 0.021-387.959-387.925-387.857 387.925c-12.926 12.934-30.787 20.935-50.517 20.935-39.443 0-71.418-31.975-71.418-71.418 0-19.713 7.987-37.561 20.901-50.484l438.442-438.442c12.921-12.917 30.769-20.905 50.483-20.905s37.562 7.989 50.483 20.906v0z" />
<glyph unicode="&#xe93a;" glyph-name="dye" d="M409.054 796.74c-1.195 31.164 0 124.791 0 124.791-0.058 19.304-15.711 34.933-35.019 34.953h-241.802c-19.36 0-35.055-15.695-35.055-35.055v0s1.195-93.628 0-124.791c-7.851-205.073-62.908-818.586-62.908-818.586-0.064-0.797-0.101-1.725-0.101-2.662 0-19.36 15.694-35.054 35.054-35.055h367.821c19.36 0.001 35.054 15.695 35.054 35.055 0 0.937-0.037 1.865-0.109 2.784l0.008-0.121s-55.057 613.513-62.942 818.688zM164.693 760.252h176.777l48.777-634.231h-274.33zM167.287 886.545h171.691v-56.218h-171.588v56.081zM107.008 10.411l5.12 66.56h282.010l5.12-66.56h-292.25zM952.149 960c-19.36 0-35.055-15.695-35.055-35.055v0-80.589h-31.095v80.589c0.011 0.326 0.017 0.709 0.017 1.094 0 19.36-15.695 35.055-35.055 35.055s-35.055-15.695-35.055-35.055c0-0.385 0.006-0.768 0.018-1.149l-0.001 0.056v-80.589h-31.095v80.589c-0.608 18.884-16.062 33.961-35.038 33.961s-34.43-15.077-35.036-33.905l-0.001-0.056v-80.589h-31.095v80.589c0.011 0.326 0.017 0.709 0.017 1.094 0 19.36-15.695 35.055-35.055 35.055s-35.055-15.695-35.055-35.055c0-0.385 0.006-0.768 0.018-1.149l-0.001 0.056v-80.589h-31.095v80.589c-0.608 18.884-16.062 33.961-35.038 33.961s-34.43-15.077-35.036-33.905l-0.001-0.056v-167.253c-0.058-1.364-0.092-2.965-0.092-4.573 0-59.37 45.327-108.152 103.263-113.63l0.457-0.035 45.090-618.564c1.362-41.164 34.478-74.161 75.564-75.33l0.11-0.002h25.941c41.195 1.171 74.312 34.168 75.67 75.205l0.003 0.127 45.158 618.598c58.393 5.513 103.72 54.296 103.72 113.665 0 1.608-0.033 3.209-0.099 4.801l0.007-0.228v167.253c-0.019 19.346-15.707 35.021-35.055 35.021v0zM762.778 15.667h-25.941c-1.468 0-5.291 3.618-5.803 10.24l-44.885 613.478h126.976l-44.715-613.376c-0.341-6.69-4.164-10.342-5.632-10.342zM879.241 709.461h-258.901c-21.654 3.329-38.043 21.828-38.043 44.155 0 1.447 0.069 2.878 0.203 4.289l-0.014-0.18v16.555h334.507v-16.555c0.122-1.236 0.191-2.672 0.191-4.124 0-22.291-16.337-40.767-37.691-44.108l-0.252-0.032zM251.46 520.26c0 0-0.001 0-0.001 0-9.051 0-16.956-4.907-21.201-12.205l-0.063-0.117c-5.7-9.933-55.74-98.645-55.74-148.753 3.352-39.888 36.555-70.993 77.022-70.993s73.669 31.105 77.003 70.71l0.019 0.283c0 50.108-50.039 138.82-55.74 148.753-4.316 7.416-12.227 12.322-21.283 12.322-0.006 0-0.011 0-0.017 0h0.001zM251.46 337.34c-4.676 0-27.955 1.058-27.955 21.845 4.819 31.234 14.612 59.329 28.621 84.775l-0.666-1.319c13.351-24.127 23.145-52.222 27.772-82.026l0.183-1.43c-0.068-20.787-23.381-21.845-27.955-21.845z" />
</font>
</defs>
</svg>
