<svg xmlns="http://www.w3.org/2000/svg" width="21.199" height="21.092" viewBox="0 0 21.199 21.092"><defs><style>.a{fill:#595c61;}</style></defs><g transform="translate(0 -0.261)"><path class="a" d="M19.566,50.354a.528.528,0,0,0-.528.528V55.57a1.585,1.585,0,0,1-1.584,1.584H2.64A1.585,1.585,0,0,1,1.056,55.57V41.812A1.586,1.586,0,0,1,2.64,40.228H7.328a.528.528,0,1,0,0-1.056H2.64A2.643,2.643,0,0,0,0,41.812V55.57a2.643,2.643,0,0,0,2.64,2.64H17.454a2.643,2.643,0,0,0,2.64-2.64V50.882a.528.528,0,0,0-.528-.528Zm0,0" transform="translate(0 -36.857)"/><path class="a" d="M122.363.957a2.376,2.376,0,0,0-3.36,0l-9.419,9.419a.528.528,0,0,0-.136.232l-1.239,4.472a.528.528,0,0,0,.65.65l4.472-1.239a.528.528,0,0,0,.232-.135l9.419-9.419a2.378,2.378,0,0,0,0-3.36Zm-11.629,9.762,7.709-7.709L120.929,5.5l-7.709,7.709Zm-.5,1,1.986,1.986-2.748.761Zm12-7.526-.56.56L119.19,2.263l.56-.56a1.32,1.32,0,0,1,1.866,0l.62.62A1.322,1.322,0,0,1,122.236,4.19Zm0,0" transform="translate(-102.478)"/></g></svg>