<svg xmlns="http://www.w3.org/2000/svg" width="39.064" height="29.759" viewBox="0 0 39.064 29.759">
  <g id="gmailsign" transform="translate(0 -60.983)">
    <g id="Group_8163" data-name="Group 8163" transform="translate(2.547 60.983)">
      <path id="Path_11074" data-name="Path 11074" d="M67.835,122.808,65.341,147.85H35.388l-2.009-24.557,16.985,9.51Z" transform="translate(-33.379 -118.091)" fill="#f2f2f2"/>
      <path id="Path_11075" data-name="Path 11075" d="M71.362,60.983,54.738,76.6,38.114,60.983H71.362Z" transform="translate(-37.753 -60.983)" fill="#f2f2f2"/>
    </g>
    <path id="Path_11076" data-name="Path 11076" d="M4.556,115.288v22.548H1.842A1.842,1.842,0,0,1,0,135.994V111.967l2.976.081Z" transform="translate(0 -47.094)" fill="#f14336"/>
    <path id="Path_11077" data-name="Path 11077" d="M456.844,109.2v24.027A1.842,1.842,0,0,1,455,135.066h-2.713V112.518l1.5-3.55Z" transform="translate(-417.779 -44.324)" fill="#d32e2a"/>
    <path id="Path_11078" data-name="Path 11078" d="M39.064,62.825v2.048l-4.556,3.321L19.532,79.11,4.556,68.194,0,64.873V62.825a1.842,1.842,0,0,1,1.842-1.842H2.908L19.532,73.1,36.156,60.983h1.065A1.842,1.842,0,0,1,39.064,62.825Z" fill="#f14336"/>
    <path id="Path_11079" data-name="Path 11079" d="M4.556,115.288,0,114.582v-2.615Z" transform="translate(0 -47.094)" fill="#d32e2a"/>
  </g>
</svg>
