<svg id="google-logo" xmlns="http://www.w3.org/2000/svg" width="21.344" height="21.344" viewBox="0 0 21.344 21.344">
  <path id="Path_150" data-name="Path 150" d="M4.73,145.4l-.743,2.774-2.716.057a10.69,10.69,0,0,1-.079-9.965h0l2.418.443,1.059,2.4a6.369,6.369,0,0,0,.06,4.288Z" transform="translate(0 -132.504)" fill="#fbbb00"/>
  <path id="Path_151" data-name="Path 151" d="M271.879,208.176a10.668,10.668,0,0,1-3.8,10.316h0l-3.045-.155-.431-2.69a6.36,6.36,0,0,0,2.737-3.248h-5.707v-4.222h10.251Z" transform="translate(-250.721 -199.498)" fill="#518ef8"/>
  <path id="Path_152" data-name="Path 152" d="M46.59,315.5h0a10.676,10.676,0,0,1-16.082-3.265l3.458-2.831a6.347,6.347,0,0,0,9.146,3.25Z" transform="translate(-29.237 -296.511)" fill="#28b446"/>
  <path id="Path_153" data-name="Path 153" d="M44.915,2.457l-3.457,2.83A6.346,6.346,0,0,0,32.1,8.61L28.625,5.764h0A10.675,10.675,0,0,1,44.915,2.457Z" transform="translate(-27.431)" fill="#f14336"/>
</svg>
